<?xml version="1.0" encoding="UTF-8" standalone="no"?>
<!-- Created with Inkscape (http://www.inkscape.org/) -->

<svg
   version="1.1"
   id="svg6101"
   width="200"
   height="200"
   viewBox="0 0 200 200"
   sodipodi:docname="appostazja_background.svg"
   inkscape:version="1.2.1 (9c6d41e410, 2022-07-14)"
   xmlns:inkscape="http://www.inkscape.org/namespaces/inkscape"
   xmlns:sodipodi="http://sodipodi.sourceforge.net/DTD/sodipodi-0.dtd"
   xmlns="http://www.w3.org/2000/svg"
   xmlns:svg="http://www.w3.org/2000/svg">
  <defs
     id="defs6105" />
  <sodipodi:namedview
     id="namedview6103"
     pagecolor="#ffffff"
     bordercolor="#666666"
     borderopacity="1.0"
     inkscape:pageshadow="2"
     inkscape:pageopacity="0.0"
     inkscape:pagecheckerboard="0"
     showgrid="false"
     inkscape:zoom="4.365"
     inkscape:cx="119.01489"
     inkscape:cy="119.81672"
     inkscape:window-width="2560"
     inkscape:window-height="1369"
     inkscape:window-x="1912"
     inkscape:window-y="-8"
     inkscape:window-maximized="1"
     inkscape:current-layer="g6107"
     inkscape:showpageshadow="2"
     inkscape:deskcolor="#d1d1d1" />
  <g
     inkscape:groupmode="layer"
     inkscape:label="Image"
     id="g6107">
    <path
       style="fill:#000000;stroke-width:0.0666667"
       id="path6224"
       d="" />
    <rect
       style="fill:#363636;stroke:none;stroke-width:0.7;fill-opacity:1"
       id="rect6511"
       width="199.59999"
       height="199.99994"
       x="0.20000458"
       y="3.0517578e-05" />
    <g
       id="g6167"
       transform="matrix(0.70588294,0,0,0.70588294,27.745115,6.5201792)"
       style="display:inline">
      <path
         style="display:inline;opacity:0.697479;fill:#393939;fill-opacity:1;stroke:none;stroke-width:0.264583px;stroke-linecap:butt;stroke-linejoin:miter;stroke-opacity:1"
         d="m 102.18996,94.044327 -45.944211,47.763793 -1.051364,11.059 -15.915537,16.71135 v 27.86398 L 165.44313,197.3051 v -27.86396 l -8.19019,-9.372 -17.11202,-27.54768 z"
         id="path10915" />
      <path
         style="display:inline;fill:none;stroke:#e6e6e6;stroke-width:5.04934;stroke-linecap:round;stroke-linejoin:round;stroke-miterlimit:4;stroke-dasharray:none;stroke-opacity:1"
         d="m 48.785489,147.26683 53.404471,-53.222502 27.54519,27.927102 c 3.4686,3.51667 6.93718,7.03335 10.40577,10.55003"
         id="path7148-86-8-3"
         sodipodi:nodetypes="cccc" />
      <path
         style="display:inline;fill:none;stroke:#e6e6e6;stroke-width:5.04934;stroke-linecap:round;stroke-linejoin:round;stroke-miterlimit:4;stroke-dasharray:none;stroke-opacity:1"
         d="m 56.24575,141.80812 -0.181967,55.67895 60.316197,0.12636"
         id="path7458-32-1-1"
         sodipodi:nodetypes="ccc" />
      <circle
         id="path7692-44-2-4"
         style="display:inline;fill:#000000;stroke:#e6e6e6;stroke-width:0.272648"
         cx="86.632622"
         cy="198.21492"
         r="0.51892912" />
      <path
         style="display:inline;fill:none;stroke:#e6e6e6;stroke-width:5.04934;stroke-linecap:round;stroke-linejoin:round;stroke-miterlimit:4;stroke-dasharray:none;stroke-opacity:1"
         d="m 86.632608,197.1243 0.160679,-26.11413 15.617243,-19.37118 1.75602,2.04015"
         id="path7729-36-9-66"
         sodipodi:nodetypes="cccc" />
      <path
         style="display:inline;fill:none;stroke:#e6e6e6;stroke-width:5.04934;stroke-linecap:round;stroke-linejoin:round;stroke-miterlimit:4;stroke-dasharray:none;stroke-opacity:1"
         d="m 117.47173,197.61337 -0.0884,-8.71887"
         id="path8191-9-4-1"
         sodipodi:nodetypes="cc" />
      <path
         style="display:inline;fill:none;stroke:#e6e6e6;stroke-width:5.04934;stroke-linecap:round;stroke-linejoin:round;stroke-miterlimit:4;stroke-dasharray:none;stroke-opacity:1"
         d="m 138.85747,197.48707 8.36693,-0.18197 -0.18196,-25.97"
         id="path8539-69-3-0"
         sodipodi:nodetypes="ccc" />
      <path
         style="display:inline;fill:none;stroke:#e6e6e6;stroke-width:5.049;stroke-linecap:round;stroke-linejoin:round;stroke-miterlimit:4;stroke-dasharray:none;stroke-opacity:1"
         d="M 102.18996,67.233602 V 94.044328 M 95.422179,74.210974 h 13.464841"
         id="path9157-1-8-7"
         sodipodi:nodetypes="cccc" />
      <circle
         style="display:inline;fill:#e6e6e6;fill-opacity:1;stroke:#e6e6e6;stroke-width:4.3938;stroke-linecap:round;stroke-linejoin:round;stroke-miterlimit:4;stroke-dasharray:none;stroke-opacity:1"
         id="path9498-4-1-1"
         cx="137.21616"
         cy="144.5865"
         r="3.336102" />
      <path
         style="display:inline;fill:none;stroke:#e6e6e6;stroke-width:5.15239;stroke-linecap:round;stroke-linejoin:round;stroke-miterlimit:4;stroke-dasharray:none;stroke-opacity:1"
         d="m 110.33191,163.10065 8.10856,-11.2818 12.2407,-0.0263 10.02873,10.90769 8.10599,-9.33431"
         id="path9533-1-9-7"
         sodipodi:nodetypes="ccccc" />
      <path
         style="display:inline;fill:none;stroke:#e6e6e6;stroke-width:10.614;stroke-linecap:butt;stroke-linejoin:miter;stroke-miterlimit:4;stroke-dasharray:none;stroke-opacity:1"
         d="m 130.5262,155.09409 -11.36936,15.55778"
         id="path10233-5-7-9"
         sodipodi:nodetypes="cc" />
      <path
         style="display:inline;fill:none;stroke:#e6e6e6;stroke-width:7.41944;stroke-linecap:round;stroke-linejoin:round;stroke-miterlimit:4;stroke-dasharray:none;stroke-opacity:1"
         d="m 128.34569,196.44045 2.00153,-16.14484 -11.82722,-11.55429 -8.552,11.9182 -13.009955,-0.091"
         id="path10439-5-28-4"
         sodipodi:nodetypes="ccccc" />
      <path
         style="display:inline;fill:none;stroke:#e6e6e6;stroke-width:5.15239;stroke-linecap:round;stroke-linejoin:round;stroke-miterlimit:4;stroke-dasharray:none;stroke-opacity:1"
         d="m 55.194386,152.86712 -20.460001,20.46"
         id="path11400-9-9-4"
         sodipodi:nodetypes="cc" />
      <path
         style="display:inline;fill:none;stroke:#e6e6e6;stroke-width:5.15239;stroke-linecap:round;stroke-linejoin:round;stroke-miterlimit:4;stroke-dasharray:none;stroke-opacity:1"
         d="m 39.278848,169.57847 v 27.86398 h 18.218726"
         id="path11501-4-4-0"
         sodipodi:nodetypes="ccc" />
      <path
         style="display:inline;fill:none;stroke:#e6e6e6;stroke-width:5.15239;stroke-linecap:round;stroke-linejoin:round;stroke-miterlimit:4;stroke-dasharray:none;stroke-opacity:1"
         d="m 157.25294,160.06914 12.73468,13.12065"
         id="path11400-1-2-1-29"
         sodipodi:nodetypes="cc" />
      <path
         style="display:inline;fill:none;stroke:#e6e6e6;stroke-width:5.15239;stroke-linecap:round;stroke-linejoin:round;stroke-miterlimit:4;stroke-dasharray:none;stroke-opacity:1"
         d="M 165.44313,169.44114 V 197.3051 H 147.2244"
         id="path11501-0-9-4-5"
         sodipodi:nodetypes="ccc" />
      <path
         id="rect12660-4-0-29"
         style="display:inline;fill:none;fill-opacity:1;stroke:#e6e6e6;stroke-width:5.15239;stroke-linecap:round;stroke-linejoin:round;stroke-miterlimit:4;stroke-dasharray:none;stroke-opacity:1"
         d="m 102.27883,113.65483 a 6.8733765,6.2201986 0 0 0 -6.825958,5.5293 h -0.04742 v 0.69101 17.27854 H 109.1522 v -17.27854 -0.69101 h -0.043 a 6.8733765,6.2201986 0 0 0 -6.83052,-5.5293 z" />
    </g>
    <path
       style="fill:#e6e6e6;fill-opacity:0.156177;stroke-width:0.0666667"
       d="m 0.19999967,1.5023496 c 0,1.69428 -0.0154,1.65931 0.48532,1.10512 0.34302993,-0.3797 0.44800993,-0.79824 0.44800993,-1.78624003 V -4.2663231e-7 h -0.46666993 -0.46666 z M 26.48227,0.90444957 c 0.0317,0.83005003 0.0504,0.93563003 0.22762,1.28334003 0.21546,0.42273 0.63468,0.75615 1.11295,0.88516 0.63749,0.17196 1.44026,-0.13398 1.8214,-0.69414 C 29.91232,1.9848096 30,1.5702496 30,0.69671957 V -4.2663231e-7 h -1.77612 -1.77613 z m 28.39796,0.0456 c 0.0198,0.66093003 0.06,1.02247003 0.13241,1.18818003 0.58734,1.34497 2.46054,1.42643 3.13451,0.13632 0.17865,-0.34198 0.18618,-0.39517 0.18618,-1.31545003 V 4.9573368e-5 h -1.74075 -1.74074 z m 28.8531,-0.1621 c 0,1.03579003 0.10307,1.38818003 0.53125,1.81636003 0.69579,0.69579 1.76575,0.68849 2.4711,-0.0169 0.39142,-0.39142 0.46121,-0.64334 0.46285,-1.67072003 l 10e-4,-0.916639996632 h -1.73334 -1.73333 z m 28.41184,0.19543 c 0.0278,1.13363003 0.0995,1.34329003 0.61474,1.79682003 0.67812,0.5969 1.6895,0.5599 2.33482,-0.0854 0.41817,-0.41818 0.50526,-0.72957 0.50526,-1.80661003 V 4.9573368e-5 h -1.73946 -1.73944 z m 28.86675,-0.0333 c 0.0278,1.08126003 0.10178,1.30274003 0.57927,1.73412003 0.26674,0.24098 0.79617,0.44921 1.14213,0.44921 0.34596,0 0.8754,-0.20823 1.14214,-0.44921 0.47748,-0.43138 0.55146,-0.65286 0.57927,-1.73412003 l 0.0244,-0.949999996632 h -1.74584 -1.74583 z m 28.38807,-0.0619 c 0,1.07704003 0.0871,1.38843003 0.50526,1.80661003 0.83082,0.83081 2.21318,0.60159 2.78261,-0.46141 0.12335,-0.23027 0.14613,-0.40087 0.16694,-1.25000003 L 172.8789,4.9573368e-5 h -1.73944 -1.73945 z m 28.86813,0.0285 c 10e-4,0.74326003 0.0245,0.96739003 0.12328,1.18481003 0.21037,0.4631 0.70922,0.8663 1.22526,0.99033 l 0.18333,0.0441 V 1.5679896 4.9573368e-5 h -0.76667 -0.76666 z M 13.53808,3.1443896 c -0.36684,0.10535 -0.78717,0.43533 -0.98652,0.77445 l -0.1849,0.31454 -0.0333,1.63334 -0.0333,1.63333 -1.93334,0.0333 c -2.1992701,0.0379 -2.3072601,0.061 -2.7898101,0.59668 -0.34039,0.37786 -0.44382,0.64721 -0.44206,1.15118 0.002,0.68424 0.32022,1.2295204 0.89854,1.5415804 0.2517,0.13585 0.3789,0.1458 2.2666701,0.17726 l 2,0.0333 0.0333,5.76667 c 0.0376,6.50879 -0.005,6.01572 0.57115,6.52335 0.34002,0.2993 0.66759,0.41052 1.20325,0.40852 0.50095,-0.002 0.84712,-0.1596 1.20447,-0.54881 0.50659,-0.55172 0.4878,-0.29767 0.4878,-6.59513 v -5.5879 h 1.84226 c 1.21922,0 1.93077,-0.0265 2.10395,-0.0784 0.33393,-0.10005 0.8182,-0.52517 1.00214,-0.87972 0.10421,-0.2008904 0.14391,-0.4012504 0.14698,-0.7418804 0.007,-0.73745 -0.28938,-1.21301 -0.98757,-1.58652 -0.26143,-0.13986 -0.36496,-0.14782 -2.18586,-0.16802 l -1.91142,-0.0212 -0.0222,-1.5788 c -0.022,-1.5683 -0.0234,-1.58107 -0.20295,-1.92205 -0.3976,-0.75498 -1.23194,-1.11323 -2.04727,-0.87907 z m 57.15428,0.0301 c -0.38076,0.13503 -0.78007,0.49599 -0.96652,0.8737 -0.14937,0.3026 -0.15836,0.39725 -0.1801,1.89734 l -0.0229,1.57886 -1.94476,0.0211 -1.94476,0.0211 -0.36667,0.2056 c -1.25726,0.70502 -1.18001,2.4945004 0.13333,3.0890004 0.27922,0.12639 0.43281,0.1359 2.21667,0.13726 l 1.91667,0.002 v 5.5879 c 0,6.29746 -0.0188,6.04341 0.48779,6.59516 0.35736,0.38921 0.70353,0.54694 1.20448,0.54881 0.53565,0.002 0.86322,-0.10922 1.20325,-0.40852 0.57669,-0.50763 0.53353,-0.0146 0.57115,-6.52335 l 0.0333,-5.76667 1.96667,-0.0333 c 1.86212,-0.0316 1.98118,-0.0411 2.23964,-0.17941 0.32269,-0.17267 0.66994,-0.54985 0.8124,-0.8824104 0.24528,-0.57263 0.0712,-1.40469 -0.3905,-1.86639 -0.47495,-0.47494 -0.60833,-0.50126 -2.72821,-0.53846 l -1.9,-0.0333 -0.0333,-1.63333 -0.03332,-1.63382 -0.1849,-0.31454 c -0.41039,-0.69814 -1.31299,-1.01967 -2.08941,-0.74431 z m 57.37386,-0.0495 c -0.47158,0.15473 -0.87022,0.49331 -1.10876,0.94171 -0.10926,0.20538 -0.12664,0.42647 -0.14506,1.84551 l -0.0209,1.61219 -1.94574,0.0211 -1.94575,0.0212 -0.34325,0.18104 c -1.06572,0.56207 -1.26774,1.93105 -0.41134,2.7874404 0.41476,0.41476 0.4914,0.42818 2.65459,0.46485 l 1.96667,0.0333 0.0333,5.73334 c 0.0239,4.11738 0.055,5.7803 0.11003,5.9 0.31269,0.67944 0.8954,1.06666 1.6052,1.06666 0.68248,0 1.20207,-0.2888 1.53328,-0.85226 l 0.18482,-0.3144 0.0333,-5.76667 0.0333,-5.76667 1.96667,-0.0333 1.96666,-0.0333 0.31441,-0.18482 c 1.01905,-0.59904 1.15239,-1.9963404 0.26669,-2.7947604 -0.45525,-0.41038 -0.71906,-0.45376 -2.75986,-0.45376 h -1.7879 l -0.001,-1.55 c -0.001,-1.4142 -0.0134,-1.57628 -0.1371,-1.85 -0.16773,-0.37096 -0.47811,-0.7021 -0.82614,-0.88136 -0.28736,-0.14802 -0.96075,-0.21723 -1.23573,-0.12701 z m 57.18161,0.0334 c -0.39504,0.14734 -0.67748,0.37062 -0.9222,0.72902 l -0.22564,0.33048 -0.0209,1.65772 -0.0209,1.65772 h -1.817 c -2.0593,0 -2.29431,0.0377 -2.76986,0.4448 -0.90612,0.7756 -0.78039,2.1994404 0.24758,2.8037204 l 0.3144,0.18482 2,0.0333 2,0.0333 0.0333,5.76667 c 0.0332,5.74987 0.0337,5.76744 0.17722,6.03333 0.31207,0.57833 0.85734,0.89615 1.54158,0.89854 0.69137,0.002 1.19123,-0.28742 1.52044,-0.88158 l 0.19414,-0.35018 0.0181,-5.74635 0.0181,-5.74636 1.9819,-0.0203 c 2.21914,-0.0228 2.18473,-0.016 2.6813,-0.52765 0.8982,-0.9255404 0.39495,-2.5826604 -0.86648,-2.8531904 -0.19589,-0.042 -1.06941,-0.0728 -2.06524,-0.0728 h -1.72576 l -0.021,-1.61666 c -0.0185,-1.42338 -0.0358,-1.64457 -0.14509,-1.85 -0.17548,-0.32986 -0.49811,-0.65547 -0.80724,-0.8147 -0.33695,-0.17356 -0.98352,-0.21937 -1.32079,-0.0936 z M 41.3255,3.3195596 c -0.39834,0.2081 -0.75026,0.61884 -0.8558,0.99884 -0.0382,0.13737 -0.0691,0.92596 -0.0693,1.76498 l -3.6e-4,1.51667 -1.91667,6.7e-4 c -1.86903,6.6e-4 -1.92495,0.005 -2.25,0.15656 -0.6232,0.29148 -0.96986,0.78798 -1.02063,1.46175 -0.0507,0.67336 0.32582,1.3354104 0.94942,1.6691904 0.25832,0.13828 0.36545,0.14614 2.25454,0.1655 l 1.98334,0.0203 v 5.65114 c 0,6.29996 -0.0187,6.03343 0.4583,6.52497 0.7134,0.73511 1.84895,0.72707 2.5357,-0.018 0.48891,-0.5304 0.47266,-0.30448 0.47266,-6.57385 v -5.58419 l 1.95,-0.0204 c 1.85141,-0.0193 1.96349,-0.0276 2.21667,-0.16452 0.31535,-0.17048 0.63713,-0.49808 0.80788,-0.82251 0.18084,-0.3436004 0.17003,-1.1441904 -0.0203,-1.5000004 -0.16769,-0.31355 -0.49416,-0.63535 -0.82096,-0.8092 -0.20935,-0.11137 -0.43337,-0.12623 -2.17907,-0.14448 l -1.94574,-0.0203 -0.0209,-1.61299 c -0.0239,-1.83974 -0.0457,-1.92608 -0.6142,-2.42647 -0.5338,-0.46987 -1.28657,-0.56174 -1.91457,-0.23367 z m 57.30734,-0.0294 c -0.1836,0.0855 -0.43485,0.27052 -0.55834,0.41116 -0.41706,0.47501 -0.4363,0.5715 -0.46187,2.31542 l -0.0232,1.58331 h -1.8495 c -2.03615,0 -2.23672,0.0301 -2.68942,0.40322 -0.3509,0.28925 -0.60606,0.84923 -0.60606,1.33011 0,0.48236 0.2552,1.0406004 0.6098,1.3338904 0.43476,0.35961 0.70628,0.39945 2.7224,0.39945 h 1.8191 l 0.0188,5.71666 0.0188,5.71667 0.2,0.36429 c 0.60981,1.11078 2.093617,1.25714 2.89699,0.28578 0.41181,-0.49792 0.40299,-0.35579 0.40299,-6.4955 v -5.5879 h 1.82146 c 2.12799,0 2.28099,-0.0294 2.78785,-0.5363 0.31686,-0.31686 0.52403,-0.7900904 0.52403,-1.1970404 0,-0.5741 -0.42899,-1.26982 -0.95716,-1.5523 -0.26417,-0.14128 -0.36098,-0.14858 -2.22618,-0.16806 l -1.95,-0.0204 v -1.45086 c 0,-1.66037 -0.0528,-1.94578 -0.44479,-2.40371 -0.50223,-0.58675 -1.357433,-0.77309 -2.05568,-0.44793 z m 57.36766,-0.069 c -0.12806,0.0408 -0.38773,0.22521 -0.57706,0.40986 -0.50688,0.49429 -0.55678,0.71936 -0.55678,2.51078 v 1.45091 l -1.98875,0.0203 -1.98875,0.0203 -0.32562,0.20143 c -1.0321,0.63846 -1.17225,2.03383 -0.28091,2.7967804 0.47409,0.4058 0.65803,0.43513 2.72923,0.43513 h 1.8548 v 5.5879 c 0,6.20272 -0.0132,6.00564 0.43899,6.53398 0.30752,0.35926 0.6824,0.5503 1.16591,0.59414 0.68676,0.0623 1.29902,-0.24875 1.64361,-0.83495 l 0.18482,-0.31441 0.0333,-5.76666 0.0333,-5.76667 1.93333,-0.0347 c 1.33847,-0.024 1.99269,-0.0605 2.12626,-0.11867 1.33311,-0.58022 1.40833,-2.5246704 0.12219,-3.1581104 -0.30228,-0.14887 -0.39389,-0.15656 -2.24845,-0.18853 l -1.93333,-0.0333 -0.0333,-1.63334 -0.0333,-1.63333 -0.18482,-0.31441 c -0.42069,-0.71566 -1.28584,-1.02843 -2.11467,-0.7645 z M 27.69539,23.98408 c -0.52951,0.18896 -0.85651,0.49135 -1.07635,0.99536 -0.0886,0.20305 -0.11826,0.56762 -0.14823,1.82056 l -0.0375,1.56667 -1.96667,0.0333 c -1.32286,0.0224 -2.02554,0.0596 -2.14651,0.11369 -0.30087,0.13444 -0.69907,0.53936 -0.85353,0.86796 -0.12028,0.25589 -0.14208,0.40243 -0.12284,0.826 0.0202,0.44446 0.0509,0.55412 0.22483,0.80153 0.28222,0.40156 0.69846,0.69889 1.09847,0.78468 0.19595,0.042 1.06991,0.0728 2.06706,0.0728 h 1.72757 l 0.0191,5.68333 c 0.0189,5.60236 0.0211,5.68762 0.15835,5.98408 0.30504,0.65899 0.87165,1.02367 1.59413,1.026 0.74432,0.002 1.29782,-0.36548 1.62008,-1.07677 0.10322,-0.22784 0.11492,-0.75301 0.13205,-5.92869 l 0.0188,-5.67871 1.8812,-0.0213 c 1.74167,-0.0197 1.90351,-0.0316 2.18195,-0.16049 1.11173,-0.5146 1.38467,-1.97546 0.52624,-2.81653 -0.45419,-0.44501 -0.43226,-0.44097 -2.59366,-0.4776 l -1.96666,-0.0333 -0.0351,-1.56667 c -0.0313,-1.39516 -0.0502,-1.59959 -0.17255,-1.86741 -0.37719,-0.82544 -1.31057,-1.24102 -2.13028,-0.94851 z m 57.39341,-0.0535 c -0.31809,0.0758 -0.79708,0.37875 -0.98197,0.62116 -0.31276,0.41005 -0.33412,0.53745 -0.37133,2.21489 l -0.0355,1.6 -2,0.0333 c -2.19534,0.0366 -2.19249,0.0361 -2.62884,0.47243 -0.3597,0.35969 -0.50029,0.70314 -0.50252,1.22757 -0.002,0.40129 0.027,0.51779 0.20499,0.83156 0.24821,0.43759 0.68217,0.7598 1.16191,0.86269 0.19384,0.0416 1.07402,0.0724 2.0663,0.0724 h 1.7286 l 0.0181,5.71666 0.0181,5.71667 0.16528,0.32359 c 0.18084,0.35406 0.41394,0.57874 0.81008,0.78084 0.83046,0.42368 1.90824,0.0332 2.31873,-0.84008 0.13782,-0.2932 0.13925,-0.3546 0.13925,-5.99238 v -5.69615 l 1.91666,-0.0212 c 2.16351,-0.024 2.26878,-0.0454 2.76342,-0.56304 0.33255,-0.34801 0.47418,-0.70575 0.47171,-1.19154 -0.002,-0.48117 -0.12428,-0.79537 -0.44688,-1.15245 C 91.45147,28.44567 91.41098,28.43747 89.19998,28.4 L 87.23331,28.3667 87.20001,26.7 c -0.0317,-1.58701 -0.0406,-1.67831 -0.18479,-1.91023 -0.4307,-0.69261 -1.19483,-1.0334 -1.92641,-0.85915 z m 57.15876,0.0276 c -0.40119,0.11193 -0.75677,0.39571 -1.01424,0.80943 l -0.2,0.32138 -0.0333,1.6388 -0.0333,1.6388 -2,0.0333 -2,0.0333 -0.31441,0.18482 c -0.71496,0.42028 -1.02165,1.26098 -0.7504,2.05704 0.14569,0.42757 0.44326,0.75472 0.88283,0.97057 l 0.38198,0.18757 1.91523,0.0212 1.91523,0.0212 0.0181,5.74543 0.0181,5.74544 0.18327,0.31176 c 0.31914,0.54289 0.94237,0.92157 1.51673,0.92157 0.40695,0 0.88018,-0.20717 1.19704,-0.52403 0.56562,-0.56561 0.5363,-0.20574 0.5363,-6.5825 v -5.6161 l 1.91666,-0.0224 1.91667,-0.0224 0.34131,-0.17972 c 0.56804,-0.29908 0.88474,-0.76413 0.94007,-1.3804 0.0632,-0.70411 -0.26103,-1.34124 -0.85116,-1.67253 -0.29359,-0.16481 -0.31873,-0.16704 -2.26355,-0.2 l -1.96667,-0.0333 -0.0333,-1.63334 c -0.0333,-1.63183 -0.0335,-1.63362 -0.21536,-1.94297 -0.42646,-0.72545 -1.21394,-1.05247 -2.00374,-0.8321 z m 57.1646,0.0376 c -0.37535,0.12708 -0.72624,0.419 -0.96657,0.80413 -0.13686,0.21933 -0.1476,0.33338 -0.17893,1.9 l -0.0333,1.66667 -2,0.0333 c -1.88776,0.0315 -2.01496,0.0414 -2.26666,0.17723 -1.26956,0.68505 -1.17385,2.54603 0.16182,3.14654 0.19684,0.0885 0.57657,0.1111 2.18818,0.13027 l 1.95,0.0232 v 5.707 c 0,5.5543 0.004,5.71431 0.13219,5.98008 0.19491,0.40264 0.6025,0.7674 1.01265,0.90626 l 0.35516,0.12024 0.0171,-5.20065 c 0.009,-2.86036 0.009,-7.52122 0,-10.35747 l -0.0171,-5.15683 z M 56.0115,24.08458 c -0.31626,0.1012 -0.84205,0.59832 -0.98529,0.93155 -0.10407,0.24211 -0.12554,0.51615 -0.14603,1.86356 l -0.024,1.57971 -1.97808,0.0203 c -1.87899,0.0193 -1.99144,0.0275 -2.24475,0.16418 -0.83908,0.45277 -1.15936,1.45799 -0.73857,2.31804 0.21312,0.43562 0.63728,0.78786 1.08476,0.90083 0.16245,0.041 1.03408,0.0706 2.0812,0.0706 h 1.80168 l 0.0188,5.71667 0.0188,5.71667 0.18006,0.34131 c 0.30136,0.57127 0.76405,0.88448 1.39048,0.94129 0.68786,0.0624 1.29983,-0.24828 1.64464,-0.83486 l 0.18483,-0.31445 0.0333,-5.76667 0.0333,-5.76666 1.93333,-0.0347 c 1.22014,-0.0219 1.99481,-0.0625 2.1,-0.11003 0.39853,-0.18015 0.72375,-0.48905 0.90507,-0.85967 0.42015,-0.85875 0.10027,-1.8708 -0.73209,-2.3162 -0.25847,-0.1383 -0.37753,-0.14784 -2.23965,-0.1794 l -1.96666,-0.0333 -0.0333,-1.63333 c -0.0308,-1.51097 -0.0441,-1.65331 -0.17723,-1.9 -0.31144,-0.57715 -0.86365,-0.90053 -1.52277,-0.89173 -0.22,0.003 -0.49983,0.0373 -0.62183,0.0763 z m 57.14841,0.0425 c -0.33746,0.15326 -0.69325,0.50158 -0.86415,0.84602 -0.11493,0.23164 -0.13141,0.43778 -0.15007,1.87689 l -0.021,1.61667 -1.91238,10e-4 c -1.77868,0.001 -1.93334,0.011 -2.21237,0.1371 -1.14783,0.51898 -1.41385,1.9206 -0.53192,2.80253 0.49101,0.49101 0.67795,0.52557 2.84259,0.52557 h 1.81979 l 0.0181,5.75 0.0181,5.75 0.14416,0.26667 c 0.30699,0.56789 0.81572,0.89875 1.46161,0.9506 0.34198,0.0275 0.47248,0.005 0.76969,-0.13167 0.4027,-0.18534 0.72719,-0.48843 0.90479,-0.84509 0.11201,-0.22495 0.1209,-0.61213 0.13751,-5.98681 l 0.0178,-5.7463 1.94892,-0.0204 c 1.85144,-0.0194 1.96242,-0.0276 2.2191,-0.16502 0.58773,-0.31465 0.9055,-0.80476 0.95014,-1.46542 0.0468,-0.69227 -0.24739,-1.25722 -0.83418,-1.60214 l -0.31948,-0.18779 -1.96667,-0.0333 -1.96667,-0.0333 -0.0333,-1.63333 -0.0333,-1.63333 -0.18482,-0.31441 c -0.20234,-0.34421 -0.48912,-0.59247 -0.86663,-0.7502 -0.33874,-0.14153 -1.01609,-0.12902 -1.3553,0.025 z m 57.3097,-0.0219 c -0.36864,0.15991 -0.65293,0.40935 -0.85147,0.7471 l -0.18482,0.31437 -0.0333,1.63333 -0.0333,1.63333 -1.96667,0.0333 c -2.17567,0.0369 -2.2449,0.0493 -2.67789,0.48233 -0.66464,0.66464 -0.69382,1.70585 -0.0672,2.3994 0.12981,0.14369 0.35807,0.32658 0.50724,0.40643 0.25831,0.13826 0.36548,0.14614 2.25346,0.16548 l 1.98225,0.0203 0.0178,5.74635 c 0.017,5.51195 0.023,5.75687 0.14569,6.00409 0.31003,0.62459 0.84265,0.94317 1.57206,0.9403 0.71112,-0.003 1.21785,-0.30614 1.55584,-0.93137 l 0.14416,-0.26667 0.0181,-5.75 0.0181,-5.75 h 1.82939 c 1.6642,0 1.86148,-0.012 2.18462,-0.1329 0.63496,-0.23757 1.04343,-0.79669 1.10038,-1.5062 0.0275,-0.34198 0.005,-0.47248 -0.13166,-0.76968 -0.18535,-0.4027 -0.48844,-0.7272 -0.8451,-0.90479 -0.2118,-0.10547 -0.47268,-0.12209 -2.18624,-0.13925 l -1.94572,-0.0195 -0.0209,-1.61384 -0.0209,-1.61384 -0.19408,-0.35028 c -0.20529,-0.37052 -0.48948,-0.62728 -0.87047,-0.78646 -0.29776,-0.12442 -1.00333,-0.11976 -1.29916,0.009 z M 0.19999967,34.33787 v 10.13788 l 0.20015,-0.14252 c 0.11008,-0.0784 0.27761,-0.24408 0.37229,-0.3682 C 1.1383396,43.4853 1.1333296,43.5747 1.1333296,37.52274 v -5.58941 h 1.7879 c 2.1293503,0 2.3209403,-0.0358 2.8106903,-0.52557 0.88193,-0.88193 0.6159,-2.28355 -0.53192,-2.80253 -0.27863,-0.12597 -0.43388,-0.13574 -2.1790403,-0.1371 l -1.87905,-10e-4 -0.0209,-1.61667 c -0.0196,-1.51111 -0.0304,-1.63437 -0.16613993,-1.88788 -0.12546,-0.23487 -0.62518,-0.76258 -0.72168,-0.76258 -0.0182,0 -0.0331,4.56204 -0.0331,10.13787 z M 13.40295,44.63849 c -0.36864,0.15992 -0.65293,0.40936 -0.85147,0.7471 L 12.36666,45.7 l -0.0333,1.63333 -0.0333,1.63334 -1.96667,0.0333 c -2.1880101,0.0371 -2.2432601,0.0477 -2.7179301,0.52237 -0.33045,0.33045 -0.47887,0.69994 -0.48061,1.19644 -0.002,0.67734 0.28756,1.19861 0.8508,1.5297 l 0.31441,0.18482 2.0000001,0.0333 2,0.0333 0.0333,5.76667 c 0.0332,5.74987 0.0337,5.76744 0.17723,6.03333 0.29992,0.55582 0.86089,0.89601 1.4817,0.89853 0.55261,0.002 0.86683,-0.12256 1.25146,-0.49713 0.58479,-0.56943 0.55628,-0.22872 0.55628,-6.64676 v -5.5879 l 1.88333,-6.7e-4 c 1.83264,-6.7e-4 1.89231,-0.005 2.21667,-0.1562 0.59074,-0.27568 1.03333,-0.9509 1.03333,-1.57648 0,-0.57436 -0.37868,-1.19759 -0.92157,-1.51673 l -0.31176,-0.18327 -1.94475,-0.0203 -1.94476,-0.0203 -0.0232,-1.57966 c -0.0255,-1.73989 -0.0449,-1.83688 -0.46184,-2.31174 -0.44563,-0.50754 -1.32909,-0.72019 -1.92254,-0.46276 z m 28.36371,-0.0451 C 41.42844,44.68029 41.02551,44.9171 40.8393,45.1384 40.44096,45.6118 40.43597,45.6375 40.4,47.4 l -0.0333,1.63333 -2,0.0333 -2,0.0333 -0.31441,0.18482 c -1.18165,0.69461 -1.11794,2.40483 0.11441,3.07102 0.25352,0.13705 0.36435,0.14516 2.24891,0.16447 l 1.98225,0.0203 0.0178,5.74635 c 0.0166,5.37473 0.0255,5.76191 0.13751,5.98686 0.1776,0.35666 0.50208,0.65975 0.90479,0.84509 0.66404,0.30564 1.47457,0.11483 1.96979,-0.46372 0.45224,-0.52834 0.43899,-0.33125 0.43899,-6.53398 v -5.5879 h 1.82146 c 2.04212,0 2.22205,-0.0295 2.70641,-0.44411 0.42224,-0.36143 0.56875,-0.69245 0.57058,-1.28922 10e-4,-0.42917 -0.026,-0.54962 -0.19254,-0.85029 -0.10674,-0.19266 -0.29425,-0.42669 -0.41668,-0.52008 -0.46076,-0.35144 -0.54293,-0.36296 -2.58708,-0.36296 h -1.90215 l -4e-4,-1.48334 c -2e-4,-0.81583 -0.031,-1.59365 -0.0684,-1.72848 -0.0375,-0.13484 -0.16479,-0.38916 -0.28297,-0.56517 -0.34454,-0.51313 -1.17448,-0.84369 -1.7482,-0.69627 z m 28.79952,0.0967 c -0.1836,0.0855 -0.43486,0.27052 -0.55834,0.41116 -0.41706,0.47501 -0.43631,0.5715 -0.46188,2.31542 L 69.52276,49 h -1.84951 c -1.48413,0 -1.90856,0.0201 -2.14844,0.10186 -0.69794,0.23781 -1.14921,0.87929 -1.14772,1.63147 4.6e-4,0.24078 0.0465,0.53918 0.10354,0.67152 0.15798,0.36643 0.51714,0.7335 0.88555,0.90506 0.32517,0.15142 0.38349,0.15547 2.25048,0.1561 l 1.91667,6.7e-4 v 5.5879 c 0,6.41805 -0.0285,6.07733 0.55628,6.64683 0.38462,0.37457 0.69885,0.4994 1.25145,0.49714 0.62082,-0.003 1.18178,-0.34272 1.48171,-0.89854 C 72.96624,64.03412 72.96676,64.01655 73,58.26668 l 0.0333,-5.76667 1.96666,-0.0333 c 1.86212,-0.0316 1.98118,-0.0411 2.23965,-0.17941 0.58289,-0.3119 0.91139,-0.87139 0.9125,-1.55411 0.001,-0.67682 -0.34993,-1.25547 -0.93703,-1.54462 C 76.9128,49.0397 76.82119,49.03202 74.96663,49.00004 L 73.0333,48.96674 73,47.33341 72.9667,45.70007 72.78188,45.38567 c -0.45551,-0.7749 -1.4051,-1.07298 -2.21567,-0.69551 z m 28.363067,-0.0683 c -0.502167,0.1396 -0.962307,0.53591 -1.174457,1.01153 -0.10077,0.22593 -0.12249,0.50857 -0.14216,1.85 l -0.0232,1.58334 -1.91138,6.6e-4 c -1.86146,6.7e-4 -1.9201,0.005 -2.2452,0.1561 -1.27671,0.59454 -1.33321,2.36886 -0.0977,3.06962 l 0.3649,0.20697 1.9482,0.0204 1.9482,0.0204 0.0185,5.67964 0.0185,5.67964 0.18758,0.38198 c 0.33255,0.67722 0.96498,1.03472 1.710837,0.96708 0.624073,-0.0566 1.087203,-0.37056 1.388183,-0.94108 l 0.18005,-0.34131 0.0185,-5.71667 0.0185,-5.71666 h 1.78611 c 2.1324,0 2.31845,-0.0351 2.81457,-0.53125 0.53583,-0.53583 0.67032,-1.3332 0.33554,-1.98941 -0.17465,-0.34236 -0.66262,-0.76845 -0.99358,-0.86761 -0.17318,-0.0519 -0.88474,-0.0784 -2.10395,-0.0784 h -1.84227 v -1.45457 c 0,-1.71355 -0.0548,-1.99006 -0.48779,-2.46208 -0.4538,-0.49468 -1.110203,-0.6967 -1.716273,-0.52822 z m 29.018413,-0.005 c -0.29704,0.0952 -0.78756,0.53864 -0.96712,0.87434 -0.13822,0.25839 -0.1485,0.3738 -0.16814,1.88825 l -0.0209,1.61303 -1.97906,0.0203 c -1.88133,0.0193 -1.99225,0.0274 -2.24574,0.16446 -0.31536,0.17047 -0.63713,0.49808 -0.80788,0.8225 -0.1823,0.34636 -0.16998,1.14338 0.0233,1.50855 0.18862,0.35636 0.67281,0.78018 1.00503,0.87972 0.17365,0.052 0.89219,0.0784 2.13585,0.0784 h 1.87416 l 0.0181,5.75 0.0181,5.75 0.19409,0.35029 c 0.32935,0.59441 0.82749,0.88304 1.52401,0.88304 0.74958,0 1.37984,-0.4394 1.61338,-1.1248 0.0882,-0.25892 0.10186,-1.05624 0.10186,-5.95374 v -5.65479 l 1.88333,-0.003 c 2.02499,-0.003 2.17715,-0.024 2.61531,-0.35819 0.12745,-0.0972 0.31488,-0.31822 0.41654,-0.49115 0.16038,-0.27283 0.18482,-0.38493 0.18482,-0.84774 0,-0.79685 -0.30206,-1.283 -1,-1.60945 -0.32458,-0.15181 -0.38274,-0.15593 -2.21336,-0.15656 l -1.88002,-6.7e-4 -0.02,-1.61666 c -0.0224,-1.81666 -0.0443,-1.91396 -0.53656,-2.3917 -0.42086,-0.40843 -1.16898,-0.56681 -1.76908,-0.37452 z m 28.23964,0.007 c -0.40072,0.11113 -0.74454,0.34504 -0.95963,0.65286 -0.31336,0.44846 -0.36101,0.7565 -0.36101,2.33375 v 1.45607 h -1.8756 c -1.24476,0 -1.96362,0.0264 -2.13728,0.0784 -0.35304,0.10577 -0.80909,0.52051 -0.99526,0.90509 -0.44487,0.91897 0.0667,2.09563 1.0369,2.38509 0.25447,0.0759 0.74035,0.0981 2.15,0.0981 h 1.82124 v 5.53005 c 0,3.74588 0.0235,5.63958 0.0728,5.86953 0.0911,0.42502 0.39978,0.83653 0.82421,1.09899 0.28747,0.17775 0.38513,0.20143 0.83103,0.20143 0.57556,0 0.8876,-0.1201 1.24768,-0.48018 0.49195,-0.49194 0.45556,0 0.4757,-6.4328 l 0.0181,-5.77964 1.94857,-0.0204 1.94857,-0.0204 0.35029,-0.19408 c 0.59417,-0.32922 0.884,-0.82908 0.88158,-1.52044 -0.002,-0.68424 -0.32021,-1.22952 -0.89853,-1.54158 -0.25133,-0.13562 -0.3798,-0.14582 -2.23334,-0.17723 l -1.96666,-0.0333 -0.0333,-1.63334 c -0.031,-1.518 -0.0436,-1.6526 -0.1794,-1.90631 -0.37718,-0.70485 -1.21887,-1.07708 -1.96662,-0.8697 z m 28.98786,0.007 c -0.38292,0.13649 -0.71882,0.43913 -0.92517,0.83357 l -0.18333,0.35044 v 1.58873 1.58874 l -1.98334,0.0203 c -2.26001,0.0232 -2.2812,0.0278 -2.79969,0.61686 -0.32273,0.36664 -0.44755,0.77046 -0.40005,1.29425 0.0413,0.45495 0.16482,0.71984 0.4853,1.04032 0.4687,0.46869 0.45084,0.46533 2.66444,0.50222 l 2,0.0333 0.0333,5.76667 0.0333,5.76667 0.18482,0.3144 c 0.33109,0.56325 0.85236,0.85317 1.52971,0.8508 0.68171,-0.002 1.20032,-0.32481 1.53804,-0.95624 l 0.14743,-0.27563 0.0181,-5.74716 0.0181,-5.74717 1.94857,-0.0195 c 2.15178,-0.0215 2.19294,-0.0289 2.64918,-0.4726 0.85339,-0.82998 0.63764,-2.22345 -0.43395,-2.80274 -0.25314,-0.13685 -0.36535,-0.1452 -2.21241,-0.16451 l -1.94573,-0.0203 -0.0209,-1.61299 c -0.0195,-1.50475 -0.0306,-1.63088 -0.16509,-1.87966 -0.42651,-0.78898 -1.36059,-1.16111 -2.18067,-0.86878 z M 27.63085,65.43942 c -0.40232,0.14285 -0.73343,0.45125 -0.94328,0.87861 -0.18672,0.38023 -0.18768,0.38902 -0.21043,1.9283 l -0.0229,1.54634 -1.94381,0.0203 c -1.84623,0.0193 -1.95737,0.0276 -2.214,0.16499 -0.35583,0.1905 -0.68342,0.52546 -0.83648,0.85534 -0.14332,0.30888 -0.1658,0.92056 -0.0483,1.31288 0.10567,0.35271 0.51556,0.80351 0.90357,0.99377 0.30669,0.15038 0.3863,0.15682 2.23223,0.18069 l 1.9142,0.0248 0.0191,5.67729 c 0.0213,6.31783 -0.0112,5.885 0.48356,6.43269 0.46551,0.51526 1.20463,0.70664 1.86329,0.48247 0.3484,-0.11858 0.82692,-0.5677 0.99927,-0.93788 0.13786,-0.29609 0.13992,-0.37391 0.15848,-5.97793 l 0.0188,-5.67793 1.8812,-0.0222 c 2.15301,-0.0254 2.24714,-0.0461 2.76117,-0.60645 0.88031,-0.95958 0.42481,-2.49666 -0.84434,-2.84924 -0.1296,-0.036 -1.03572,-0.0656 -2.0136,-0.0658 l -1.77796,-6.6e-4 -0.022,-1.55 c -0.022,-1.5441 -0.0228,-1.55146 -0.20961,-1.93198 -0.39904,-0.81262 -1.29827,-1.18039 -2.14824,-0.8786 z m 57.36871,-0.0473 c -0.34027,0.11054 -0.59237,0.27823 -0.82259,0.54719 -0.40119,0.4687 -0.44364,0.69571 -0.44364,2.37251 V 69.8 l -1.81667,6.7e-4 c -1.0307,0 -1.92273,0.0298 -2.06182,0.0685 -0.42248,0.11734 -0.85913,0.46603 -1.08257,0.8645 -0.17613,0.31409 -0.20532,0.43358 -0.20363,0.83333 0.002,0.54253 0.1395,0.85791 0.54238,1.24675 0.48295,0.46613 0.56311,0.48117 2.7042,0.50726 l 1.91523,0.0233 0.0181,5.71133 0.0181,5.71133 0.20697,0.36489 c 0.71387,1.2586 2.49267,1.18281 3.08764,-0.13156 0.13316,-0.29419 0.13582,-0.40988 0.13726,-5.97726 l 0.002,-5.67725 1.91666,-0.0248 c 1.84281,-0.0238 1.9288,-0.0307 2.23138,-0.17916 0.36318,-0.17816 0.7532,-0.58215 0.89998,-0.93223 0.056,-0.13345 0.1032,-0.42264 0.10499,-0.64264 0.005,-0.67931 -0.34464,-1.24747 -0.97738,-1.58591 -0.26337,-0.14086 -0.36239,-0.14836 -2.22563,-0.1686 l -1.95,-0.0212 -0.002,-1.57881 c -0.001,-1.39568 -0.0159,-1.61054 -0.12563,-1.85223 -0.15436,-0.33989 -0.50421,-0.69571 -0.84601,-0.86045 -0.28154,-0.1357 -0.95787,-0.19483 -1.22733,-0.1073 z m 57.26666,-6.6e-4 c -0.47158,0.15473 -0.87022,0.4933 -1.10876,0.9417 -0.1093,0.20544 -0.12664,0.42662 -0.1451,1.85 l -0.021,1.61667 h -1.81694 c -2.16008,0 -2.34904,0.0349 -2.83818,0.52403 -0.8623,0.8623 -0.64131,2.25333 0.44253,2.78552 l 0.38785,0.19045 1.91666,0.022 1.91667,0.022 v 5.61611 c 0,6.16755 -0.0136,5.95039 0.40322,6.45602 0.28925,0.35091 0.84923,0.60606 1.33011,0.60606 0.48089,0 1.04087,-0.25515 1.33012,-0.60606 0.41678,-0.50563 0.40322,-0.28848 0.40322,-6.45595 v -5.61604 l 1.88333,-0.0235 c 1.61956,-0.0202 1.92018,-0.0399 2.14641,-0.14081 0.6841,-0.30504 1.03655,-0.79249 1.08746,-1.50401 0.0416,-0.58148 -0.14136,-1.03508 -0.56956,-1.41199 -0.48348,-0.42558 -0.71082,-0.46385 -2.75545,-0.46385 h -1.78361 l -0.021,-1.61667 c -0.0185,-1.42338 -0.0358,-1.64456 -0.14509,-1.85 -0.17547,-0.32985 -0.49811,-0.65546 -0.80724,-0.8147 -0.28736,-0.14802 -0.96075,-0.21722 -1.23573,-0.127 z m 57.11734,0.0428 c -0.36942,0.13567 -0.70048,0.41389 -0.90354,0.75931 -0.17935,0.30507 -0.18016,0.3124 -0.21336,1.93956 l -0.0333,1.63334 -1.93333,0.0333 c -2.19393,0.0378 -2.30813,0.062 -2.78182,0.58783 -0.33197,0.36854 -0.45165,0.6792 -0.45086,1.17031 0.001,0.72502 0.36142,1.27909 1.03268,1.58821 0.31917,0.14698 0.41477,0.15444 2.25,0.1756 l 1.91667,0.0221 v 5.63692 c 0,4.12762 0.021,5.70698 0.0784,5.8986 0.15107,0.50424 0.87115,1.12045 1.30931,1.12045 h 0.14558 V 75.66646 c 0,-8.22473 -0.017,-10.33238 -0.0833,-10.32864 -0.0458,0.003 -0.19573,0.046 -0.3331,0.0964 z m -143.16143,0.0295 c -0.35091,0.0836 -0.78701,0.3782 -0.987,0.66678 -0.31015,0.44768 -0.36847,0.8187 -0.36847,2.34451 v 1.37939 L 52.95,69.87954 c -2.10179,0.0275 -2.16694,0.0386 -2.63563,0.45009 -0.92348,0.81083 -0.7799,2.22468 0.2874,2.83005 l 0.36489,0.20697 1.94821,0.0204 1.9482,0.0204 0.0185,5.67964 0.0185,5.67964 0.19045,0.38784 c 0.52574,1.0707 1.91898,1.29247 2.77046,0.44099 0.46961,-0.46961 0.4355,-0.008 0.47242,-6.3955 l 0.0333,-5.76667 1.93335,-0.0334 1.93333,-0.0333 0.36489,-0.20697 c 1.15459,-0.65488 1.20628,-2.19809 0.0997,-2.97551 -0.37682,-0.26472 -0.82166,-0.3167 -2.71457,-0.31714 l -1.65,-3.8e-4 v -1.57896 c 0,-1.45547 -0.0107,-1.60102 -0.13665,-1.86123 -0.3538,-0.73086 -1.20504,-1.14581 -1.97455,-0.96253 z m 57.08719,0.0448 c -0.42864,0.13165 -0.91402,0.61273 -1.06486,1.05542 -0.0906,0.266 -0.11115,0.59969 -0.11115,1.80825 v 1.48204 l -1.91666,0.025 c -1.60524,0.021 -1.95729,0.0431 -2.16664,0.13599 -0.40558,0.18002 -0.68326,0.42861 -0.87758,0.78565 -0.38893,0.71459 -0.27683,1.50077 0.29563,2.07323 0.49101,0.491 0.67795,0.52557 2.84259,0.52557 h 1.81979 l 0.0181,5.75 0.0181,5.75 0.18326,0.31176 c 0.74873,1.27367 2.50711,1.19168 3.11151,-0.14509 0.13296,-0.29408 0.13567,-0.41214 0.1371,-5.98334 l 10e-4,-5.68333 h 1.7879 c 2.16479,0 2.33808,-0.0339 2.84683,-0.55628 0.52579,-0.53991 0.6547,-1.27745 0.33972,-1.94372 -0.1931,-0.40846 -0.43786,-0.64533 -0.87445,-0.84626 -0.31854,-0.1466 -0.41691,-0.1544 -2.21667,-0.17566 l -1.88333,-0.0223 -6.7e-4,-1.54458 c -6.6e-4,-1.48144 -0.007,-1.55836 -0.15759,-1.88162 -0.19583,-0.42055 -0.63341,-0.80219 -1.06761,-0.93113 -0.40707,-0.12089 -0.64519,-0.11859 -1.06481,0.0103 z m 57.28863,-0.0103 c -0.41225,0.13242 -0.85058,0.52498 -1.03971,0.93114 -0.15053,0.32326 -0.15698,0.40018 -0.1576,1.88168 l -6.6e-4,1.54466 -1.9216,0.022 -1.92159,0.022 -0.39221,0.20069 c -0.67905,0.34747 -1.01375,0.95036 -0.94608,1.70414 0.0426,0.47393 0.23555,0.85027 0.59293,1.15618 0.46837,0.4009 0.70849,0.43899 2.76731,0.43899 h 1.82124 l 0.001,5.68333 c 0.001,5.5712 0.004,5.68926 0.1371,5.98334 0.5171,1.14366 1.92072,1.41373 2.7964,0.53805 0.56029,-0.56029 0.5317,-0.20635 0.5317,-6.58326 v -5.62146 h 1.7879 c 1.98598,0 2.2573,-0.0406 2.6955,-0.40299 0.74477,-0.61598 0.8572,-1.73922 0.24805,-2.47822 -0.11046,-0.134 -0.37272,-0.32806 -0.58281,-0.43122 l -0.38197,-0.18757 -1.88333,-0.0228 -1.88334,-0.0228 v -1.44841 c 0,-1.62078 -0.0537,-1.93371 -0.40483,-2.35824 -0.42238,-0.51072 -1.23673,-0.75068 -1.86387,-0.54922 z M 0.19999967,75.76667 c 0,7.6742 0.0188,10.1 0.0781,10.1 0.043,0 0.2065,-0.13401 0.36343,-0.2978 C 1.1529396,85.03514 1.1333396,85.29735 1.1333396,78.9879 V 73.4 h 1.7879 c 2.1293503,0 2.3209403,-0.0358 2.8106903,-0.52557 0.89717,-0.89717 0.605,-2.33243 -0.58195,-2.85877 -0.20872,-0.0925 -0.56009,-0.11501 -2.1290003,-0.13603 l -1.87902,-0.0252 -0.021,-1.57722 -0.021,-1.57721 -0.19828993,-0.35801 c -0.17277,-0.31194 -0.52684,-0.67532 -0.65801,-0.67532 -0.024,0 -0.0437,4.545 -0.0437,10.1 z M 13.33333,86.13873 c -0.36988,0.16743 -0.6344,0.41218 -0.82277,0.76127 -0.13312,0.24669 -0.14639,0.38903 -0.17723,1.9 l -0.0333,1.63333 -2,0.0333 -2.0000001,0.0333 -0.31441,0.18482 c -0.55805,0.32811 -0.85226,0.85117 -0.85226,1.51525 0,0.67797 0.29417,1.17963 0.88305,1.50591 l 0.35028,0.19409 1.9666701,0.0333 1.96667,0.0333 0.0333,5.76666 0.0333,5.76667 0.18482,0.31441 c 0.77881,1.32488 2.85584,1.00996 3.1757,-0.48149 0.0493,-0.22988 0.0728,-2.12358 0.0728,-5.86946 v -5.53006 h 1.82145 c 2.128,0 2.28099,-0.0294 2.78785,-0.53629 0.31686,-0.31686 0.52403,-0.79009 0.52403,-1.19704 0,-0.62558 -0.44259,-1.3008 -1.03333,-1.57648 -0.32436,-0.15137 -0.38403,-0.15557 -2.21667,-0.1562 l -1.88333,-6.5e-4 V 89.0121 c 0,-1.70359 -0.0562,-1.99243 -0.47657,-2.44845 -0.1472,-0.15969 -0.39466,-0.35184 -0.54991,-0.427 -0.38046,-0.18418 -1.03081,-0.18324 -1.44019,0.002 z m 28.26463,-0.0363 c -0.40942,0.12622 -0.84946,0.51864 -1.03972,0.92724 -0.15053,0.32326 -0.15697,0.40018 -0.15759,1.88168 l -6.7e-4,1.54466 -1.91667,0.022 -1.91666,0.022 -0.39999,0.2 c -1.32776,0.66389 -1.27397,2.51845 0.0914,3.15023 0.20491,0.0948 0.54046,0.11554 2.19195,0.13538 l 1.95,0.0234 6.6e-4,5.67882 6.7e-4,5.67882 0.15545,0.33382 c 0.17156,0.3684 0.53864,0.72756 0.90507,0.88554 0.13234,0.0571 0.43073,0.10307 0.67151,0.10355 0.52636,0.001 1.00998,-0.21882 1.3285,-0.60395 0.41389,-0.50044 0.40484,-0.3552 0.40484,-6.49238 v -5.58255 l 1.91666,-0.0224 1.91667,-0.0224 0.34325,-0.18069 c 0.78548,-0.41349 1.13904,-1.29322 0.85489,-2.12715 -0.14569,-0.42757 -0.44326,-0.75471 -0.88284,-0.97057 L 47.63336,90.5 45.75003,90.4779 43.86669,90.4558 v -1.44915 c 0,-1.75917 -0.051,-1.99735 -0.53015,-2.47652 -0.48369,-0.48368 -1.08067,-0.63057 -1.73855,-0.42777 z m 28.95584,0.0361 c -0.15374,0.0761 -0.39923,0.26823 -0.54554,0.42695 -0.41851,0.45403 -0.47493,0.74469 -0.47493,2.44668 v 1.45457 l -1.91667,6.6e-4 c -1.86699,6.7e-4 -1.92531,0.005 -2.25048,0.1561 -0.62724,0.29209 -0.98134,0.85672 -0.98875,1.57658 -0.008,0.75526 0.47674,1.42404 1.18467,1.63525 0.25447,0.0759 0.74034,0.0981 2.15,0.0981 h 1.82123 v 5.53005 c 0,3.74588 0.0235,5.63958 0.0728,5.86953 0.31986,1.49146 2.39689,1.80637 3.17571,0.48149 l 0.18483,-0.31441 0.0333,-5.76666 0.0333,-5.76667 1.93333,-0.0333 c 1.85456,-0.032 1.94617,-0.0397 2.24845,-0.18853 0.83988,-0.41365 1.1945,-1.48643 0.76672,-2.31945 -0.17956,-0.34965 -0.43756,-0.60912 -0.8065,-0.81111 -0.17928,-0.0982 -0.48566,-0.11894 -2.17534,-0.14758 l -1.96666,-0.0333 -0.0333,-1.63334 c -0.0308,-1.51096 -0.0441,-1.65331 -0.17723,-1.9 -0.31485,-0.58348 -0.85645,-0.8962 -1.55611,-0.89848 -0.30659,-0.001 -0.51508,0.0391 -0.71286,0.13696 z m 28.412857,-0.0797 c -0.516017,0.13494 -0.966227,0.5147 -1.194017,1.00719 -0.12588,0.27217 -0.1412,0.44743 -0.16118,1.84473 l -0.0221,1.54398 -1.91136,0.0227 c -1.83815,0.0218 -1.92333,0.0286 -2.22379,0.17658 -0.36139,0.17802 -0.75593,0.5877 -0.90217,0.9368 -0.13443,0.32094 -0.12956,0.97576 0.01,1.30931 0.148,0.35437 0.53524,0.75017 0.90486,0.92487 0.28043,0.13254 0.42496,0.14318 2.21488,0.16303 l 1.91487,0.0212 0.0185,5.67877 c 0.0182,5.59846 0.0204,5.68302 0.15767,5.97951 0.30336,0.65537 0.89857,1.03055 1.627457,1.02584 0.664773,-0.004 1.173893,-0.31007 1.501693,-0.9019 l 0.19829,-0.35802 0.0185,-5.71666 0.0185,-5.71667 h 1.69493 c 0.96809,0 1.83975,-0.0311 2.03263,-0.0724 0.4873,-0.1045 0.91773,-0.42306 1.16326,-0.8609 0.17612,-0.3141 0.20532,-0.43358 0.20362,-0.83334 -0.003,-0.7193 -0.37157,-1.28926 -1.0306,-1.59396 -0.27808,-0.12856 -0.44234,-0.14072 -2.17885,-0.16124 l -1.87811,-0.0222 -0.0219,-1.57796 c -0.0235,-1.69573 -0.028,-1.71961 -0.42175,-2.24633 -0.32095,-0.42935 -1.187383,-0.71571 -1.733473,-0.5729 z m 28.916163,0.0409 c -0.3723,0.1618 -0.65386,0.41966 -0.85541,0.78344 l -0.19409,0.35028 -0.021,1.61667 -0.021,1.61667 -1.91237,10e-4 c -1.77869,0.001 -1.93335,0.0109 -2.21237,0.1371 -0.36824,0.1665 -0.69867,0.47476 -0.88764,0.8281 -0.10932,0.20443 -0.1426,0.38338 -0.1426,0.76667 0,0.58008 0.14114,0.9161 0.52721,1.25507 0.51223,0.44974 0.47335,0.44292 2.65159,0.46524 l 1.9819,0.0203 0.0181,5.74636 0.0181,5.74635 0.14424,0.26702 c 0.17048,0.31535 0.49808,0.63713 0.82251,0.80788 0.3436,0.18084 1.14419,0.17003 1.5,-0.0203 0.35334,-0.18897 0.66161,-0.51939 0.8281,-0.88763 0.13296,-0.29408 0.13567,-0.41216 0.1371,-5.97963 l 0.001,-5.67963 1.95,-0.0204 c 1.85255,-0.0194 1.9635,-0.0276 2.22019,-0.16502 0.65337,-0.34979 0.93049,-0.8241 0.92822,-1.58868 -0.002,-0.61256 -0.091,-0.8302 -0.50437,-1.23138 -0.45036,-0.43707 -0.63482,-0.46862 -2.73925,-0.46862 h -1.85479 v -1.52146 c 0,-1.18988 -0.0222,-1.58661 -0.10186,-1.8204 -0.23624,-0.6933 -0.86502,-1.12676 -1.6279,-1.1222 -0.2403,0.001 -0.53464,0.0451 -0.65408,0.097 z m 28.37469,-0.0526 c -0.35597,0.0548 -0.8805,0.43792 -1.09817,0.80219 -0.27215,0.45542 -0.29108,0.59991 -0.29195,2.22804 l -7.3e-4,1.37725 -1.91667,0.0238 c -2.19295,0.0272 -2.28345,0.0468 -2.79665,0.60624 -0.80192,0.87415 -0.51417,2.23679 0.57924,2.74291 0.27895,0.12912 0.43964,0.14075 2.21741,0.16045 l 1.91667,0.0212 7.3e-4,5.5121 c 6.7e-4,3.03164 0.0194,5.62513 0.0422,5.76329 0.071,0.42981 0.41646,0.9232 0.81166,1.15936 0.73579,0.43968 1.52348,0.34043 2.11342,-0.26631 0.2043,-0.21011 0.36666,-0.45118 0.41667,-0.61866 0.062,-0.20761 0.0819,-1.64658 0.0819,-5.91209 v -5.63769 l 1.91667,-0.0212 c 2.18257,-0.0242 2.28841,-0.0465 2.77315,-0.58459 0.34234,-0.38003 0.44352,-0.64661 0.44352,-1.16857 0,-0.53668 -0.16986,-0.93177 -0.54712,-1.2726 -0.49335,-0.44572 -0.5437,-0.45482 -2.66955,-0.48259 l -1.91667,-0.0251 v -1.50285 c 0,-0.99531 -0.0277,-1.59553 -0.0819,-1.77726 -0.12531,-0.41965 -0.66371,-0.93611 -1.1135,-1.06812 -0.35281,-0.10355 -0.51951,-0.11477 -0.88038,-0.0592 z m 28.87877,0.0581 c -0.36864,0.15991 -0.65293,0.40935 -0.85147,0.7471 l -0.18482,0.31434 -0.0333,1.63333 -0.0333,1.63333 -1.96666,0.0333 c -2.18378,0.037 -2.24354,0.048 -2.68918,0.49362 -0.32911,0.3291 -0.45237,0.59088 -0.4939,1.04892 -0.0475,0.52379 0.0773,0.9276 0.40005,1.29425 0.51849,0.58903 0.53968,0.59371 2.79969,0.61686 l 1.98334,0.0203 0.001,5.71301 c 10e-4,5.42835 0.008,5.72664 0.12563,5.98642 0.15325,0.33746 0.50158,0.69325 0.84601,0.86415 0.35228,0.17479 1.16234,0.17643 1.49356,0.003 0.32382,-0.16953 0.65177,-0.49139 0.82251,-0.80723 l 0.14416,-0.26667 0.0181,-5.74631 0.0181,-5.7463 1.94857,-0.0204 c 1.84994,-0.0193 1.96206,-0.0277 2.21523,-0.16452 0.84117,-0.45473 1.19234,-1.43509 0.80896,-2.25838 -0.18621,-0.3999 -0.66557,-0.84338 -1.02941,-0.9524 -0.17312,-0.0519 -0.88374,-0.0784 -2.09966,-0.0784 h -1.83797 l -0.021,-1.61666 -0.021,-1.61667 -0.19409,-0.35029 c -0.20528,-0.37051 -0.48947,-0.62727 -0.87046,-0.78646 -0.29776,-0.12441 -1.00334,-0.11976 -1.29916,0.009 z M 27.64183,106.89379 c -0.39938,0.14868 -0.7228,0.44899 -0.94183,0.87454 l -0.2,0.38856 -0.0229,1.55122 -0.0229,1.55122 -1.94381,0.0203 -1.94381,0.0203 -0.35029,0.19409 c -0.59605,0.33026 -0.88304,0.82735 -0.88304,1.52949 0,0.33883 0.0387,0.50203 0.18618,0.78426 0.2081,0.39834 0.61884,0.75026 0.99884,0.85579 0.1434,0.0398 1.02886,0.0691 2.09585,0.0693 l 1.84754,6.7e-4 0.0191,5.71666 0.0191,5.71667 0.17712,0.33334 c 0.0974,0.18333 0.26241,0.41406 0.36666,0.51273 0.68099,0.64454 1.8634,0.59023 2.48171,-0.11399 0.46875,-0.53387 0.43916,-0.11904 0.45997,-6.44874 l 0.0188,-5.71667 1.88121,-6.7e-4 c 1.82985,-6.6e-4 1.89031,-0.005 2.21502,-0.1561 0.36841,-0.17156 0.72757,-0.53863 0.88555,-0.90506 0.0571,-0.13234 0.10307,-0.43074 0.10354,-0.67152 0.002,-0.77092 -0.4703,-1.42202 -1.18501,-1.63524 -0.25371,-0.0757 -0.73571,-0.0981 -2.1113,-0.0981 h -1.78252 l -0.0221,-1.55 c -0.0207,-1.45038 -0.032,-1.57138 -0.1753,-1.8825 -0.18626,-0.40441 -0.35713,-0.59422 -0.73496,-0.81644 -0.358,-0.21057 -1.04465,-0.26981 -1.43651,-0.12394 z M 84.8,106.93844 c -0.42456,0.19178 -0.77817,0.56215 -0.93376,0.978 -0.11828,0.31612 -0.13291,0.52007 -0.13291,1.85272 v 1.4975 H 81.9121 c -2.17033,0 -2.35232,0.0339 -2.84861,0.53016 -0.32313,0.32313 -0.53016,0.79298 -0.53016,1.20318 0,0.61135 0.45511,1.30756 1.02963,1.57508 0.3292,0.1533 0.38156,0.15696 2.25227,0.1576 l 1.91523,6.6e-4 0.0181,5.75 0.0181,5.75 0.14721,0.27522 c 0.65859,1.23124 2.37168,1.29035 3.06797,0.10586 l 0.18482,-0.31441 0.0333,-5.76667 0.0333,-5.76666 1.96666,-0.0333 c 1.68968,-0.0286 1.99606,-0.0494 2.17534,-0.14758 0.62644,-0.34296 0.97388,-0.89444 0.97674,-1.5503 0.003,-0.68555 -0.30143,-1.20893 -0.89406,-1.53716 l -0.35801,-0.1983 -1.93334,-0.0333 -1.93333,-0.0333 -0.0333,-1.63333 -0.0333,-1.63334 -0.18482,-0.3144 c -0.43803,-0.74516 -1.40915,-1.06287 -2.18185,-0.71382 z m 57.26666,0 c -0.36724,0.16605 -0.6976,0.47371 -0.88918,0.8281 -0.13451,0.24883 -0.14556,0.37484 -0.16512,1.88334 l -0.021,1.61666 h -1.81694 c -2.05414,0 -2.29482,0.0382 -2.76302,0.439 -0.42932,0.36748 -0.57502,0.69546 -0.57502,1.29434 0,0.3857 0.0333,0.56291 0.14566,0.77521 0.18862,0.35636 0.67281,0.78018 1.00503,0.87972 0.17365,0.052 0.89227,0.0784 2.13619,0.0784 h 1.87452 l 0.0177,5.75 c 0.0171,5.53399 0.0226,5.75977 0.14687,6.01023 0.30829,0.62134 0.87311,0.97018 1.57088,0.97018 0.69778,0 1.2626,-0.34884 1.57089,-0.97018 0.12425,-0.25044 0.12979,-0.47662 0.14721,-6.01023 l 0.0181,-5.75 h 1.85335 c 2.13778,0 2.2953,-0.0287 2.77185,-0.50526 0.83087,-0.83088 0.6025,-2.20877 -0.46141,-2.78391 -0.25314,-0.13685 -0.36534,-0.1452 -2.2124,-0.16451 l -1.94574,-0.0203 -0.0209,-1.61299 c -0.0195,-1.50475 -0.0306,-1.63088 -0.16509,-1.87966 -0.31913,-0.59034 -0.92193,-0.96374 -1.55584,-0.96374 -0.226,0 -0.48175,0.052 -0.66666,0.13564 z m 57.30604,-0.0337 c -0.37966,0.13911 -0.6779,0.39014 -0.88789,0.74738 l -0.18482,0.31452 -0.0333,1.63334 -0.0333,1.63333 -1.96666,0.0333 c -1.856,0.0315 -1.98188,0.0415 -2.23686,0.17799 -0.63506,0.33997 -0.96026,0.86671 -0.96026,1.55535 0,0.70224 0.32778,1.25545 0.9153,1.5448 0.30276,0.14911 0.39222,0.1565 2.28178,0.18853 l 1.96666,0.0333 0.0333,5.76667 0.0334,5.76667 0.14708,0.27494 c 0.22677,0.42393 0.86792,0.88564 1.23625,0.89026 0.11062,0.001 0.11667,-0.53449 0.11667,-10.33187 0,-8.22473 -0.017,-10.33237 -0.0833,-10.32863 -0.0458,0.003 -0.20062,0.0477 -0.34396,0.10018 z m -143.21506,0.0304 c -0.43736,0.13502 -0.84554,0.48016 -1.05614,0.89304 l -0.2015,0.39503 -0.022,1.54966 -0.022,1.54968 -1.91136,0.022 c -2.15739,0.0249 -2.26403,0.0467 -2.75809,0.56369 -0.32715,0.34234 -0.46949,0.7036 -0.46949,1.19154 0,0.65024 0.29113,1.15179 0.8829,1.52107 0.22284,0.13906 0.3232,0.1471 2.23333,0.17893 l 2,0.0333 0.0333,5.7 c 0.0328,5.60388 0.0357,5.70507 0.17254,6.00075 0.52171,1.1271 2.00398,1.3849 2.82728,0.49172 0.49724,-0.53944 0.46684,-0.11948 0.46684,-6.44986 0,-5.1316 0.0104,-5.69902 0.10546,-5.73548 0.058,-0.0223 0.92896,-0.0405 1.93547,-0.0405 2.05208,0 2.08483,-0.006 2.58488,-0.46684 0.68918,-0.63526 0.7253,-1.68662 0.0821,-2.38787 -0.50962,-0.55556 -0.60149,-0.57533 -2.79118,-0.60057 l -1.91667,-0.0221 -10e-4,-1.57798 c -10e-4,-1.38394 -0.0164,-1.61096 -0.12328,-1.84613 -0.1497,-0.32955 -0.47283,-0.66056 -0.81547,-0.83537 -0.30234,-0.15423 -0.93717,-0.21992 -1.23547,-0.12783 z m 57.15168,0.0402 c -0.42864,0.13165 -0.91402,0.61273 -1.06486,1.05542 -0.0906,0.26604 -0.11115,0.59979 -0.11115,1.80975 v 1.48354 l -1.92162,0.0212 -1.92163,0.0213 -0.39218,0.20069 c -0.48957,0.25054 -0.79124,0.62999 -0.90501,1.13838 -0.16396,0.73264 0.16266,1.50575 0.79257,1.87603 l 0.31454,0.1849 2,0.0333 2,0.0333 0.0333,5.73333 0.0333,5.73334 0.15519,0.31511 c 0.17127,0.34774 0.42066,0.58551 0.83685,0.79783 0.33694,0.1719 1.02687,0.19178 1.37948,0.0397 0.33318,-0.14364 0.71,-0.49084 0.88241,-0.81305 l 0.14608,-0.27298 0.0333,-5.76667 0.0333,-5.76666 1.96667,-0.0333 c 1.85353,-0.0314 1.98201,-0.0416 2.23333,-0.17723 1.26824,-0.68435 1.17863,-2.52742 -0.15248,-3.13627 -0.20981,-0.096 -0.53948,-0.11708 -2.16418,-0.13854 l -1.91667,-0.0253 -6.7e-4,-1.54466 c -6.6e-4,-1.4778 -0.007,-1.55907 -0.1562,-1.87798 -0.20474,-0.43872 -0.61248,-0.79926 -1.05127,-0.92957 -0.42479,-0.12614 -0.65898,-0.12505 -1.08254,0.005 z m 57.23618,0.018 c -0.43428,0.14999 -0.77744,0.46538 -0.98636,0.90655 -0.15182,0.3206 -0.15787,0.39234 -0.1585,1.87805 l -6.6e-4,1.54471 -1.95,0.0222 -1.95,0.0222 -0.34132,0.17981 c -0.5681,0.29927 -0.88474,0.76427 -0.94006,1.3805 -0.0632,0.70385 0.23808,1.30431 0.82856,1.6514 l 0.31948,0.18779 2,0.0333 2,0.0333 0.0333,5.76667 0.0333,5.76667 0.14607,0.27298 c 0.17268,0.32268 0.54986,0.66994 0.88242,0.81239 0.131,0.0561 0.41818,0.10257 0.63818,0.10325 0.68534,0.002 1.29209,-0.35939 1.57814,-0.94018 l 0.15519,-0.31511 0.0333,-5.73333 0.0333,-5.73334 1.96666,-0.0333 1.96667,-0.0333 0.31441,-0.18482 c 0.59058,-0.34716 0.89729,-0.95607 0.83387,-1.65547 -0.0588,-0.64841 -0.40193,-1.12352 -1.01578,-1.40645 -0.31787,-0.14651 -0.41538,-0.1542 -2.21583,-0.17456 l -1.88334,-0.0213 v -1.48349 c 0,-1.75312 -0.045,-1.95855 -0.53629,-2.44987 -0.49707,-0.49708 -1.10443,-0.63225 -1.78487,-0.39724 z M 0.19999967,117.23333 c 0,5.555 0.0197,10.1 0.0437,10.1 0.13117,0 0.48524,-0.36338 0.65801,-0.67532 L 1.0999996,126.3 l 0.0333,-5.73333 0.0333,-5.73334 1.96667,-0.0333 c 2.0776903,-0.0352 2.0494203,-0.031 2.5059103,-0.37677 0.26479,-0.20058 0.54995,-0.72574 0.60258,-1.10974 0.0973,-0.70984 -0.29552,-1.43305 -0.95398,-1.75637 l -0.38784,-0.19045 -1.8790103,-0.0213 -1.87902,-0.0213 -0.021,-1.57873 c -0.0203,-1.52732 -0.0264,-1.58924 -0.18589993,-1.90157 -0.15834,-0.31 -0.53643,-0.71049 -0.67075,-0.71049 -0.0411,0 -0.0643,3.65385 -0.0643,10.1 z M 13.67895,127.47228 c -0.48769,0.0942 -1.02722,0.52516 -1.23342,0.98513 -0.0504,0.11237 -0.0909,0.76593 -0.1122,1.80926 l -0.0333,1.63333 -2,0.0333 c -1.8877701,0.0315 -2.0149701,0.0414 -2.2666701,0.17723 -0.57832,0.31207 -0.89614,0.85734 -0.89854,1.54158 -0.002,0.50398 0.10167,0.77332 0.44206,1.15118 0.48255,0.53567 0.59054,0.55876 2.7898101,0.59668 l 1.93334,0.0333 0.0333,5.76667 c 0.0277,4.78523 0.0493,5.79503 0.12706,5.93333 0.20502,0.36457 0.42073,0.58668 0.73692,0.75877 0.8813,0.47966 1.92247,0.16774 2.38832,-0.71551 l 0.18103,-0.34326 0.0185,-5.71292 0.0185,-5.71292 1.91488,-0.0204 1.91489,-0.0204 0.33333,-0.17674 c 0.39368,-0.20873 0.56553,-0.38341 0.77716,-0.78993 0.21053,-0.40441 0.21263,-1.10739 0.005,-1.50855 -0.18394,-0.35455 -0.66821,-0.77967 -1.00214,-0.87972 -0.17311,-0.0519 -0.88371,-0.0784 -2.09958,-0.0784 h -1.83788 l -0.021,-1.58333 c -0.0191,-1.43916 -0.0337,-1.61072 -0.16024,-1.88408 -0.34515,-0.74568 -1.13841,-1.1502 -1.94851,-0.99364 z m 57.27614,-0.002 c -0.55643,0.10795 -1.0033,0.46398 -1.24922,0.99526 -0.12653,0.27336 -0.14112,0.44492 -0.16023,1.88408 l -0.021,1.58333 -1.91231,0.002 c -1.77947,0.001 -1.93314,0.0109 -2.2123,0.13723 -1.31335,0.59451 -1.39059,2.38399 -0.13334,3.089 l 0.36667,0.20561 1.94821,0.0212 1.94822,0.0212 0.0185,5.71216 0.0185,5.71216 0.18104,0.34326 c 0.67336,1.27673 2.39634,1.25288 3.12523,-0.0433 0.0778,-0.1383 0.0994,-1.1481 0.12706,-5.93333 l 0.0333,-5.76667 1.93333,-0.0333 1.93334,-0.0333 0.36666,-0.20561 c 1.21136,-0.67927 1.19268,-2.38894 -0.0333,-3.0505 -0.25132,-0.13561 -0.3798,-0.14581 -2.23333,-0.17722 l -1.96666,-0.0333 -0.0333,-1.63334 c -0.0375,-1.83867 -0.0586,-1.92981 -0.54755,-2.37158 -0.42802,-0.38668 -0.94158,-0.53226 -1.49736,-0.42442 z m 57.25469,0.001 c -0.56215,0.11017 -1.06146,0.509 -1.28757,1.02844 -0.0598,0.13733 -0.0977,0.69941 -0.12124,1.79971 l -0.0343,1.6 -1.96668,0.0333 c -2.16319,0.0367 -2.23983,0.0501 -2.65459,0.46484 -0.71016,0.71016 -0.71474,1.77218 -0.0107,2.47625 0.491,0.49098 0.67794,0.52555 2.84258,0.52555 h 1.8198 l 0.0181,5.75 0.0181,5.75 0.1477,0.27617 c 0.0812,0.15189 0.27296,0.38338 0.42605,0.51442 0.86723,0.74231 2.13103,0.49544 2.68209,-0.52393 l 0.14416,-0.26666 0.0181,-5.75 0.0181,-5.75 h 1.78646 c 2.03924,0 2.30325,-0.0434 2.75843,-0.45377 0.8857,-0.79841 0.75236,-2.19571 -0.26669,-2.79475 l -0.31441,-0.18482 -1.96666,-0.0333 -1.96662,-0.0333 -0.0333,-1.63333 c -0.0331,-1.62019 -0.0348,-1.63575 -0.21032,-1.93333 -0.22842,-0.38718 -0.42098,-0.56316 -0.79052,-0.72246 -0.39076,-0.16844 -0.69894,-0.20902 -1.05604,-0.13902 z m 57.25688,-0.008 c -0.5098,0.1006 -0.97517,0.44435 -1.22278,0.90321 -0.13311,0.24669 -0.14639,0.38904 -0.17722,1.9 l -0.0333,1.63334 -2,0.0333 -2,0.0333 -0.3144,0.18482 c -1.02797,0.60427 -1.1537,2.02811 -0.24758,2.80372 0.47572,0.4072 0.71016,0.44479 2.77408,0.44479 h 1.82124 v 5.64227 c 0,4.13171 0.021,5.71232 0.0784,5.90394 0.0996,0.33241 0.5257,0.81916 0.87156,0.99561 0.65686,0.3351 1.44698,0.20092 1.985,-0.3371 0.56029,-0.56029 0.5317,-0.20635 0.5317,-6.58326 v -5.62146 h 1.7879 c 2.02247,0 2.26698,-0.0393 2.73398,-0.43899 0.74639,-0.63888 0.81355,-1.79727 0.14419,-2.487 -0.49661,-0.51172 -0.46199,-0.50491 -2.68273,-0.52766 l -1.98334,-0.0203 v -1.46683 c 0,-0.81153 -0.0315,-1.5917 -0.0706,-1.74635 -0.20861,-0.82628 -1.15103,-1.41616 -1.99609,-1.2494 z m -143.80043,0.0655 c -0.49522,0.15064 -0.90781,0.51813 -1.12766,1.00438 -0.12372,0.27363 -0.13577,0.43582 -0.13711,1.84549 l -10e-4,1.54548 -1.95,0.0215 c -2.1452,0.0236 -2.19168,0.0315 -2.67544,0.45626 -0.32664,0.2868 -0.51489,0.66818 -0.55603,1.1265 -0.0631,0.7028 0.23851,1.30347 0.82866,1.65037 l 0.31948,0.18776 2,0.0333 2,0.0333 0.0334,5.76667 0.0333,5.76667 0.18202,0.30964 c 0.34218,0.58207 0.8263,0.86691 1.48464,0.87351 0.68141,0.007 1.20619,-0.29805 1.53505,-0.8918 l 0.19829,-0.35802 0.0333,-5.73333 0.0333,-5.73334 1.96666,-0.0333 1.96667,-0.0333 0.30623,-0.18003 c 1.18181,-0.69476 1.12798,-2.39322 -0.0963,-3.03893 l -0.34326,-0.18104 -1.91667,-0.0212 -1.91667,-0.0212 v -1.44999 c 0,-1.7601 -0.0509,-1.99815 -0.53015,-2.47736 -0.445,-0.445 -1.12202,-0.63464 -1.67028,-0.46788 z m 57.224747,0.0103 c -0.429247,0.12441 -0.844327,0.47383 -1.056147,0.88909 l -0.2015,0.39502 -0.022,1.55044 -0.022,1.55044 -1.91135,0.0212 c -1.78634,0.0198 -1.93096,0.0305 -2.21134,0.163 -0.36962,0.1747 -0.75686,0.5705 -0.90486,0.92487 -0.13856,0.33176 -0.14439,0.98785 -0.0116,1.30485 0.15222,0.36339 0.51228,0.7326 0.88263,0.90506 0.32515,0.15142 0.38357,0.15547 2.2487,0.15611 l 1.91487,6.6e-4 0.0185,5.71667 c 0.0182,5.64371 0.0202,5.72049 0.15814,6.01667 0.17234,0.37018 0.65086,0.8193 0.99926,0.93787 0.856497,0.29151 1.80848,-0.11614 2.1885,-0.93713 0.13728,-0.29657 0.13946,-0.38013 0.15732,-6.01741 l 0.0181,-5.71667 h 1.9007 c 2.12261,0 2.19533,-0.0124 2.65206,-0.45325 0.40287,-0.38884 0.54007,-0.70422 0.54237,-1.24675 0.002,-0.39975 -0.0275,-0.51924 -0.20362,-0.83333 -0.24553,-0.43785 -0.67596,-0.7564 -1.16326,-0.86091 -0.19278,-0.0413 -1.06356,-0.0724 -2.02913,-0.0724 h -1.69143 l -0.022,-1.58333 -0.022,-1.58333 -0.19776,-0.35704 c -0.10877,-0.19637 -0.30377,-0.44473 -0.43333,-0.55192 -0.40139,-0.33204 -1.067303,-0.46643 -1.577923,-0.31844 z m 57.175683,0.0258 c -0.4076,0.13199 -0.76834,0.44621 -0.98536,0.85831 -0.17962,0.34106 -0.18092,0.35338 -0.203,1.92658 l -0.0222,1.58334 h -1.72476 c -0.98956,0 -1.86872,0.0309 -2.06247,0.0724 -1.35893,0.29143 -1.84051,1.99409 -0.82799,2.92739 0.50282,0.4635 0.52205,0.46684 2.68886,0.46684 h 1.93403 l 0.0181,5.71667 c 0.0179,5.63727 0.02,5.72084 0.15732,6.01741 0.29658,0.64072 0.89386,1.02334 1.59412,1.02121 0.22,-6.8e-4 0.50718,-0.0471 0.63818,-0.10325 0.33256,-0.14245 0.70974,-0.4897 0.88242,-0.81239 l 0.14607,-0.27298 0.0333,-5.76667 0.0333,-5.76667 1.96666,-0.0333 c 1.86212,-0.0316 1.98118,-0.0411 2.23965,-0.1794 0.32494,-0.17388 0.65581,-0.53422 0.79383,-0.86455 0.14082,-0.33702 0.1268,-1.05843 -0.027,-1.38938 -0.15466,-0.33283 -0.55647,-0.72279 -0.90648,-0.87974 -0.2322,-0.10413 -0.51378,-0.12236 -2.17914,-0.14113 l -1.91248,-0.0215 -0.0209,-1.64546 c -0.0229,-1.80726 -0.0268,-1.82644 -0.46159,-2.26746 -0.46149,-0.46812 -1.17584,-0.64594 -1.79259,-0.44622 z M 27.49951,148.42342 c -0.1836,0.0855 -0.43116,0.26632 -0.55014,0.40183 -0.41238,0.46967 -0.4355,0.58465 -0.46748,2.32475 l -0.0291,1.58333 -1.84306,4e-4 c -1.06391,2e-4 -1.94805,0.0295 -2.09138,0.0693 -0.38,0.10554 -0.79075,0.45746 -0.99884,0.85579 -0.36714,0.7028 -0.18957,1.6539 0.39944,2.13941 0.45085,0.37161 0.6526,0.40173 2.69078,0.40173 h 1.85265 l 0.0188,5.68333 0.0188,5.68334 0.15842,0.35048 c 0.39701,0.87835 1.44242,1.26662 2.30825,0.8573 0.40837,-0.19306 0.64524,-0.43777 0.84643,-0.87445 l 0.15359,-0.33333 0.0185,-5.67964 0.0185,-5.67964 1.95362,-0.0204 1.95362,-0.0204 0.32562,-0.20143 c 1.23571,-0.76443 1.14045,-2.50009 -0.16978,-3.09318 -0.27874,-0.12617 -0.43306,-0.1359 -2.17719,-0.13726 l -1.87719,-0.001 -0.0252,-1.58334 c -0.0278,-1.74301 -0.048,-1.84432 -0.46158,-2.31541 -0.31321,-0.35673 -0.79186,-0.56662 -1.29216,-0.56662 -0.27909,0 -0.50091,0.047 -0.73382,0.15545 z m 57.32417,-0.0603 c -0.3014,0.13115 -0.74316,0.55054 -0.91184,0.86568 -0.1357,0.25351 -0.14654,0.37677 -0.16614,1.88788 l -0.021,1.61667 -1.91237,6.7e-4 c -1.8677,6.7e-4 -1.92025,0.004 -2.24941,0.1576 -0.57452,0.26751 -1.02963,0.96372 -1.02963,1.57507 0,0.57436 0.37868,1.19759 0.92157,1.51673 l 0.31176,0.18327 1.9819,0.0203 1.9819,0.0203 0.0181,5.74635 0.0181,5.74636 0.14416,0.26667 c 0.66969,1.2388 2.37276,1.30225 3.07102,0.1144 l 0.18482,-0.3144 0.0333,-5.76667 0.0333,-5.76667 1.93333,-0.0333 c 1.85456,-0.032 1.94618,-0.0397 2.24845,-0.18852 1.05805,-0.5211 1.26834,-2.0912 0.38017,-2.83855 -0.48336,-0.40672 -0.4642,-0.40347 -2.59528,-0.43959 l -1.96667,-0.0333 -0.0333,-1.63334 c -0.0308,-1.51097 -0.0441,-1.65331 -0.17723,-1.9 -0.31597,-0.58555 -0.85825,-0.89777 -1.55611,-0.89592 -0.23833,6e-4 -0.52767,0.0422 -0.64298,0.0924 z m 57.2029,0.0307 c -0.33746,0.15326 -0.69324,0.50158 -0.86414,0.84601 -0.11504,0.23185 -0.1313,0.43654 -0.1491,1.8769 l -0.02,1.61666 -1.91335,0.001 c -1.77967,0.001 -1.93431,0.0109 -2.21335,0.13711 -0.36824,0.16649 -0.69867,0.47476 -0.88764,0.8281 -0.10932,0.20442 -0.1426,0.38337 -0.1426,0.76666 0,0.56808 0.13077,0.88812 0.50773,1.24254 0.48428,0.45532 0.48453,0.45537 2.67107,0.47777 l 1.9819,0.0203 0.0181,5.74636 0.0181,5.74636 0.14466,0.27019 c 0.34332,0.64122 0.826,0.92977 1.55536,0.92977 0.72937,0 1.21205,-0.28855 1.55535,-0.92981 l 0.14465,-0.27019 0.0181,-5.75 0.0181,-5.75 1.88189,-6.7e-4 c 1.83114,-6.6e-4 1.8909,-0.005 2.21524,-0.1562 1.3368,-0.62384 1.37263,-2.49619 0.0602,-3.14736 -0.23634,-0.11727 -0.43884,-0.13091 -2.20596,-0.14861 l -1.94572,-0.0195 -0.0209,-1.61384 c -0.0233,-1.79722 -0.0456,-1.90077 -0.50998,-2.36511 -0.33522,-0.33522 -0.69896,-0.47914 -1.21096,-0.47914 -0.28036,0 -0.52985,0.0438 -0.70674,0.12417 z m 57.24008,0.0116 c -0.36988,0.16743 -0.6344,0.41218 -0.82278,0.76127 -0.13311,0.24669 -0.14639,0.38904 -0.17722,1.9 l -0.0333,1.63334 -1.96666,0.0333 c -1.88956,0.032 -1.97902,0.0394 -2.28178,0.18853 -0.58752,0.28935 -0.9153,0.84257 -0.9153,1.5448 0,0.512 0.14392,0.87574 0.47914,1.21096 0.47468,0.47467 0.52992,0.48529 2.71794,0.52238 l 1.96666,0.0333 0.0333,5.76667 0.0333,5.76667 0.18482,0.3144 c 0.25525,0.43422 0.85025,0.85226 1.21304,0.85226 0.0913,0 0.10214,-1.09631 0.10214,-10.33333 0,-9.79738 -0.006,-10.33326 -0.11667,-10.33187 -0.0642,8.1e-4 -0.25166,0.0626 -0.41666,0.13726 z m -143.22483,0.0258 c -0.3834,0.13667 -0.71708,0.43451 -0.94183,0.84069 l -0.2,0.36143 -0.0228,1.58334 -0.0228,1.58333 -1.81052,4e-4 c -1.02652,2e-4 -1.91668,0.0299 -2.05567,0.0685 -1.33387,0.37048 -1.725,2.07126 -0.68654,2.98535 0.15976,0.14062 0.40822,0.29096 0.55215,0.33408 0.17364,0.052 0.89209,0.0784 2.13548,0.0784 h 1.87381 l 0.0185,5.71667 c 0.0207,6.3984 -0.0129,5.96622 0.50505,6.5082 0.34227,0.35818 0.75297,0.53216 1.24674,0.52814 0.48187,-0.004 0.79599,-0.12605 1.15245,-0.4481 0.55014,-0.49701 0.51007,-0.021 0.54755,-6.50491 l 0.0333,-5.76667 1.96667,-0.0333 c 1.85353,-0.0314 1.98201,-0.0416 2.23333,-0.17722 0.69609,-0.37562 1.05329,-1.11774 0.898,-1.86574 -0.10437,-0.50275 -0.42023,-0.93554 -0.86466,-1.18476 l -0.36667,-0.20561 -1.93333,-0.0333 -1.93334,-0.0333 -0.0333,-1.63333 -0.0333,-1.63333 -0.18482,-0.31441 c -0.41675,-0.70895 -1.29962,-1.03018 -2.07335,-0.75438 z m 57.35772,-0.0356 c -0.45805,0.13933 -0.86889,0.48679 -1.10877,0.93771 -0.10929,0.20544 -0.12664,0.42662 -0.14509,1.85 l -0.021,1.61667 h -1.81694 c -2.16148,0 -2.34884,0.0347 -2.83973,0.52557 -0.70431,0.70431 -0.69951,1.76608 0.0112,2.47679 0.44571,0.44571 0.5363,0.46122 2.70405,0.46284 l 1.95,0.001 v 5.60382 c 0,3.72215 0.0237,5.69767 0.0706,5.88333 0.11297,0.44747 0.46521,0.87163 0.90082,1.08476 0.88377,0.43238 1.85535,0.10273 2.3477,-0.79657 0.10463,-0.19111 0.11705,-0.69383 0.14758,-5.97534 l 0.0333,-5.76666 1.96667,-0.0333 1.96667,-0.0333 0.3144,-0.18482 c 0.71165,-0.41833 1.02002,-1.23978 0.77386,-2.06139 -0.0993,-0.33131 -0.52237,-0.81544 -0.87972,-1.00658 -0.26293,-0.14064 -0.36209,-0.14812 -2.22192,-0.16756 l -1.94671,-0.0204 -0.02,-1.61299 c -0.0172,-1.39207 -0.0363,-1.64592 -0.13971,-1.85349 -0.36801,-0.73905 -1.2937,-1.15978 -2.04735,-0.93053 z m 57.03377,0.0907 c -0.3833,0.18417 -0.70801,0.49398 -0.88024,0.83986 -0.10338,0.20762 -0.12249,0.46158 -0.13974,1.85718 l -0.02,1.61667 h -1.81792 c -2.06878,0 -2.33447,0.0429 -2.78425,0.44922 -0.34796,0.31435 -0.53103,0.68303 -0.57389,1.15568 -0.0623,0.68677 0.24875,1.29903 0.83495,1.64361 l 0.31441,0.18482 2,0.0333 2,0.0333 0.0333,5.76667 c 0.0305,5.28151 0.043,5.78422 0.14758,5.97534 0.20237,0.36963 0.46178,0.62716 0.80899,0.8031 0.95676,0.48483 2.15048,-0.053 2.44126,-1.09995 0.0439,-0.15788 0.0682,-2.24471 0.0685,-5.86182 l 6.7e-4,-5.61667 h 1.92025 1.92024 l 0.34497,-0.17191 c 1.09346,-0.54489 1.27141,-2.05544 0.33642,-2.85576 -0.46682,-0.39958 -0.7119,-0.439 -2.72969,-0.439 h -1.7836 l -0.021,-1.61666 c -0.0231,-1.77941 -0.0343,-1.83346 -0.47843,-2.30585 -0.30915,-0.32881 -0.67838,-0.49348 -1.17587,-0.52441 -0.35666,-0.0222 -0.4923,0.001 -0.76666,0.13322 z M 0.19999967,158.7 c 0,5.555 0.0254,10.1 0.0564,10.1 0.10753,0 0.54536,-0.47545 0.69412,-0.75375 l 0.14943993,-0.27958 0.0181,-5.75 0.0181,-5.75 1.91523,-0.001 c 2.1317403,-0.002 2.2151803,-0.0163 2.6705803,-0.47021 0.71054,-0.70816 0.71477,-1.76456 0.01,-2.46942 C 5.2422199,152.83583 5.0506299,152.8 2.9212796,152.8 h -1.7879 v -1.45457 c 0,-1.72476 -0.0533,-1.98997 -0.49180993,-2.44764 -0.15693,-0.16378 -0.32048,-0.29779 -0.36343,-0.29779 -0.0593,0 -0.0781,2.4258 -0.0781,10.1 z M 13.59957,168.92499 c -0.51289,0.16819 -0.94185,0.53403 -1.1415,0.97353 -0.10684,0.23519 -0.12199,0.46222 -0.12328,1.84696 l -10e-4,1.57882 -1.95,0.0212 c -1.8864401,0.0205 -1.9602501,0.0263 -2.2658801,0.17677 -0.38646,0.19033 -0.80028,0.64643 -0.90568,0.99821 -0.20415,0.68138 -0.0555,1.30614 0.42615,1.7907 0.52145,0.52463 0.68121,0.55551 2.8742201,0.55551 h 1.82123 v 5.71228 c 0,5.62225 0.002,5.71674 0.13665,5.99457 0.40867,0.8442 1.49522,1.25052 2.28117,0.85306 0.39727,-0.2009 0.61756,-0.40807 0.81722,-0.76856 l 0.19829,-0.35802 0.0185,-5.7121 0.0185,-5.71211 1.91488,-0.0212 1.91489,-0.0212 0.36667,-0.20561 c 0.6183,-0.34671 0.98899,-1.04466 0.91004,-1.71345 -0.0504,-0.42689 -0.35076,-0.96101 -0.67095,-1.19312 -0.47908,-0.34728 -0.75915,-0.38782 -2.67924,-0.38782 H 15.81117 L 15.78907,171.75 c -0.0206,-1.48063 -0.0316,-1.60113 -0.16877,-1.85776 -0.22397,-0.41903 -0.4421,-0.64649 -0.78348,-0.81698 -0.33305,-0.16633 -0.95664,-0.2421 -1.23667,-0.15027 z M 70.8,168.94013 c -0.56666,0.16406 -1.12771,0.79463 -1.22368,1.37533 -0.0228,0.13816 -0.0418,0.87164 -0.0422,1.62996 l -7.4e-4,1.37876 -1.91666,0.0212 c -1.77777,0.0197 -1.93846,0.0313 -2.21742,0.16045 -1.36714,0.63282 -1.36714,2.55543 0,3.18825 0.27909,0.12918 0.43866,0.14068 2.21563,0.15962 l 1.91488,0.0204 0.0185,5.71292 0.0185,5.71293 0.1983,0.35801 c 0.56208,1.01485 1.83831,1.23137 2.68356,0.4553 0.5889,-0.54071 0.54836,-0.0593 0.55001,-6.52998 l 0.001,-5.71667 h 1.7879 c 2.10518,0 2.31049,-0.0373 2.81717,-0.51119 0.71081,-0.66489 0.75492,-1.69924 0.10277,-2.41019 -0.50996,-0.55594 -0.60137,-0.57559 -2.79118,-0.59986 l -1.91666,-0.0212 -0.001,-1.57876 c -0.002,-1.7561 -0.0302,-1.90017 -0.46285,-2.33281 -0.44231,-0.44235 -1.16254,-0.6384 -1.73565,-0.47248 z m 57.176,0.0353 c -0.42864,0.13165 -0.91402,0.61273 -1.06486,1.05542 -0.0907,0.26605 -0.11115,0.5998 -0.11115,1.80981 v 1.48361 l -1.95,0.0212 -1.95,0.0212 -0.36667,0.20682 c -0.7087,0.39974 -1.04065,1.11091 -0.87929,1.88379 0.0432,0.20683 0.16235,0.49605 0.26483,0.64272 0.21677,0.31025 0.7692,0.66406 1.12992,0.72368 0.13816,0.0228 1.03871,0.0419 2.00121,0.0422 l 1.75,7.4e-4 v 5.62145 c 0,6.38277 -0.0293,6.02221 0.53629,6.58785 0.31686,0.31686 0.7901,0.52403 1.19704,0.52403 0.5741,0 1.26982,-0.42899 1.5523,-0.95716 l 0.1477,-0.27617 0.0181,-5.74544 0.0181,-5.74543 1.91524,-0.0216 c 2.11087,-0.0238 2.15737,-0.0319 2.64731,-0.46207 0.75347,-0.66156 0.75347,-1.92275 0,-2.58431 -0.48986,-0.43011 -0.53673,-0.4383 -2.64449,-0.46205 l -1.91242,-0.0215 -0.0209,-1.61212 c -0.0184,-1.41831 -0.0358,-1.64017 -0.14493,-1.84546 -0.20571,-0.38705 -0.57965,-0.72512 -0.9591,-0.86709 -0.41535,-0.15541 -0.72597,-0.16178 -1.17421,-0.0241 z m 57.35689,-0.0465 c -0.51773,0.15749 -1.04863,0.66024 -1.18783,1.12484 -0.05,0.16703 -0.0784,0.80582 -0.0784,1.76609 v 1.50442 l -1.95,0.0215 c -2.14936,0.0236 -2.19085,0.0308 -2.68208,0.46209 -0.93628,0.82206 -0.67107,2.38836 0.4939,2.9169 0.19824,0.09 0.56509,0.11166 2.18818,0.12951 l 1.95,0.0214 6.6e-4,5.67882 6.7e-4,5.67881 0.15555,0.33334 c 0.53373,1.14371 2.06652,1.36152 2.88146,0.40945 0.44475,-0.51959 0.42836,-0.27147 0.42836,-6.48342 v -5.61688 l 1.91666,-0.0212 1.91667,-0.0212 0.36429,-0.2 c 1.25866,-0.691 1.2458,-2.41729 -0.023,-3.08661 l -0.34134,-0.18005 -1.91667,-0.0212 -1.91667,-0.0212 v -1.48355 c 0,-1.75319 -0.045,-1.95862 -0.53629,-2.44994 -0.43864,-0.43864 -1.11925,-0.62749 -1.66414,-0.46174 z m -143.75732,0.0731 c -0.26604,0.0797 -0.65674,0.36131 -0.83411,0.60122 C 40.43561,170.01695 40.4,170.25348 40.4,171.8714 v 1.52129 l -1.98334,0.0203 c -1.88567,0.0193 -1.99646,0.0274 -2.25,0.16448 -1.23405,0.66712 -1.29315,2.37805 -0.10623,3.07581 l 0.30623,0.18003 2,0.0333 2,0.0333 0.0333,5.76667 0.0333,5.76667 0.18482,0.3144 c 0.3311,0.56325 0.85236,0.85317 1.52971,0.8508 0.68172,-0.002 1.20032,-0.32481 1.53805,-0.95624 l 0.14742,-0.27563 0.0181,-5.75 0.0181,-5.75 h 1.90071 c 2.0426,0 2.12492,-0.0116 2.58564,-0.36297 0.12244,-0.0934 0.30994,-0.32742 0.41669,-0.52007 0.16658,-0.30067 0.19385,-0.42112 0.19254,-0.85029 -0.002,-0.56794 -0.1334,-0.88914 -0.50927,-1.24254 -0.4834,-0.45449 -0.48823,-0.45536 -2.63918,-0.47783 l -1.95,-0.0204 v -1.45087 c 0,-1.67306 -0.0582,-1.98408 -0.45376,-2.42283 -0.4483,-0.49731 -1.19831,-0.70829 -1.83733,-0.51686 z M 98.7,169.05782 c -0.39756,0.18123 -0.68545,0.45254 -0.88516,0.83419 -0.17662,0.33752 -0.17888,0.35893 -0.20287,1.92465 L 97.58767,173.4 h -1.79766 c -1.0443,0 -1.91481,0.0296 -2.07719,0.0706 -1.02171,0.25796 -1.57537,1.48827 -1.09423,2.43154 0.20745,0.4067 0.45526,0.64803 0.84804,0.82582 0.2792,0.12638 0.43282,0.1359 2.21488,0.13727 l 1.91488,0.002 0.0185,5.71666 c 0.0205,6.35755 -0.0115,5.92482 0.4792,6.468 0.48222,0.53376 1.354987,0.71431 1.99612,0.41293 0.16703,-0.0785 0.42306,-0.27224 0.56894,-0.43051 0.49069,-0.53233 0.47417,-0.30317 0.47417,-6.57918 v -5.5879 h 1.84227 c 1.21921,0 1.93077,-0.0265 2.10395,-0.0784 0.33096,-0.0992 0.81893,-0.52526 0.99358,-0.86761 0.33305,-0.65283 0.2,-1.45387 -0.3294,-1.98328 -0.5081,-0.5081 -0.66007,-0.53738 -2.78894,-0.53738 h -1.82146 v -1.45457 c 0,-1.66439 -0.0526,-1.94926 -0.44479,-2.40741 -0.47763,-0.55801 -1.353723,-0.76957 -1.98852,-0.4802 z m 57.1995,0.0323 c -0.1836,0.0855 -0.43485,0.27052 -0.55834,0.41117 -0.41706,0.475 -0.4363,0.57149 -0.46187,2.31541 l -0.0232,1.58334 h -1.8495 c -1.48414,0 -1.90856,0.0201 -2.14845,0.10186 -0.69793,0.23781 -1.14921,0.87929 -1.14772,1.63147 6.7e-4,0.24078 0.0465,0.53917 0.10355,0.67152 0.15798,0.36642 0.51714,0.7335 0.88554,0.90506 0.32517,0.15142 0.3835,0.15547 2.25049,0.1561 l 1.91666,6.6e-4 v 5.5879 c 0,6.27997 -0.0169,6.04642 0.47656,6.58178 0.37203,0.40361 0.73088,0.5638 1.26115,0.563 0.70626,-0.001 1.23213,-0.31943 1.58137,-0.95734 0.10464,-0.19112 0.11706,-0.69384 0.14758,-5.97534 l 0.0333,-5.76667 1.96666,-0.0333 c 1.85354,-0.0314 1.98201,-0.0416 2.23334,-0.17723 0.58468,-0.3155 0.89618,-0.85618 0.89853,-1.55968 0.003,-0.79477 -0.50588,-1.47264 -1.24472,-1.65918 -0.16249,-0.041 -1.03472,-0.0706 -2.08333,-0.0706 h -1.80382 v -1.59239 -1.59239 l -0.18618,-0.35639 c -0.42884,-0.82089 -1.4129,-1.15746 -2.24764,-0.76875 z M 27.7809,189.75894 c -0.62969,0.17434 -1.14049,0.75051 -1.24802,1.40773 -0.036,0.22 -0.0656,0.9925 -0.0658,1.71666 l -3.9e-4,1.31667 -1.91666,0.002 c -1.78386,0.001 -1.93746,0.0109 -2.21667,0.13726 -0.64561,0.29225 -0.99927,0.85738 -0.99788,1.59461 0.001,0.69679 0.3182,1.21166 0.95558,1.55257 0.26349,0.14093 0.36156,0.14833 2.22563,0.1678 l 1.95,0.0204 V 198.83704 200 h 1.76667 1.76667 v -1.16667 -1.16666 l 1.78333,-3.8e-4 c 1.00801,-2.1e-4 1.88992,-0.03 2.02849,-0.0685 0.41999,-0.11665 0.85928,-0.46616 1.07784,-0.85757 0.245,-0.43875 0.27811,-0.99559 0.0885,-1.4884 -0.1471,-0.38236 -0.65214,-0.85966 -1.02912,-0.97261 -0.17658,-0.0529 -0.87495,-0.0793 -2.10064,-0.0793 h -1.83612 l -0.024,-1.58333 c -0.0218,-1.44234 -0.0365,-1.61005 -0.16461,-1.88334 -0.36495,-0.77849 -1.24104,-1.19637 -2.04282,-0.97439 z m 57.26392,0.002 c -0.46188,0.12521 -0.83233,0.41521 -1.07124,0.83856 l -0.20692,0.36667 -0.021,1.61666 -0.021,1.61667 h -1.8713 c -1.25288,0 -1.95873,0.0262 -2.13583,0.0793 -0.14549,0.0436 -0.40979,0.20986 -0.58733,0.36949 -0.6028,0.54196 -0.74676,1.33027 -0.37598,2.05877 0.19401,0.38119 0.36734,0.55213 0.77903,0.7683 0.29247,0.15357 0.34892,0.15803 2.25,0.17789 l 1.95,0.0204 V 198.83704 200 h 1.73333 1.73334 v -1.16296 -1.16297 l 1.95,-0.0204 1.95,-0.0204 0.36489,-0.20696 c 1.20156,-0.68153 1.18733,-2.3981 -0.0252,-3.04696 C 91.18115,194.2411 91.06209,194.23156 89.19997,194.2 L 87.2333,194.16667 87.2,192.53334 c -0.031,-1.51801 -0.0436,-1.65261 -0.17941,-1.90632 -0.38069,-0.71143 -1.20785,-1.07381 -1.97577,-0.8656 z m 57.34832,-0.0332 c -0.33262,0.0659 -0.82312,0.36589 -1.01965,0.62356 -0.31623,0.41459 -0.3365,0.53513 -0.37252,2.21489 l -0.0343,1.6 -2,0.0333 c -1.54579,0.0258 -2.03787,0.0546 -2.16668,0.12706 -0.36729,0.20654 -0.5876,0.42212 -0.77257,0.75598 -0.16593,0.29949 -0.19408,0.4228 -0.19408,0.85029 -2e-5,0.42537 0.0273,0.54653 0.18325,0.81176 0.1008,0.17147 0.2958,0.40483 0.43333,0.51858 0.43954,0.36353 0.70675,0.40299 2.72884,0.40299 h 1.82123 V 198.83333 200 h 1.73333 1.73334 v -1.16667 -1.16666 h 1.7879 c 2.0408,0 2.30461,-0.0434 2.75986,-0.45377 0.87898,-0.79235 0.74463,-2.20026 -0.26669,-2.79475 l -0.31441,-0.18482 -1.96666,-0.0333 -1.96667,-0.0333 -0.0333,-1.6 c -0.0313,-1.50428 -0.0426,-1.61885 -0.18853,-1.91511 -0.3309,-0.67187 -1.14414,-1.07023 -1.88499,-0.92335 z m 56.8972,0.10158 c -0.29922,0.13017 -0.72248,0.53143 -0.86683,0.82177 -0.10685,0.21489 -0.12802,0.46891 -0.15685,1.88176 l -0.0333,1.63334 -2,0.0333 -2,0.0333 -0.3144,0.18482 c -0.55805,0.32803 -0.85226,0.8511 -0.85226,1.51518 0,0.48896 0.10614,0.7624 0.43897,1.1308 0.50398,0.55784 0.53595,0.56482 2.76103,0.60253 l 1.96662,0.0333 0.0182,1.15 0.0182,1.15 h 0.7651 0.76509 v -5.13333 -5.13333 l -0.15,0.003 c -0.0825,0.001 -0.24434,0.0437 -0.35965,0.0938 z m -143.39083,0.12695 c -0.1836,0.0855 -0.43485,0.27053 -0.55834,0.41117 -0.41706,0.475 -0.4363,0.57149 -0.46187,2.31541 l -0.0232,1.58334 h -1.8495 c -1.48413,0 -1.90856,0.0201 -2.14845,0.10186 -0.98011,0.33396 -1.44343,1.52305 -0.94991,2.43791 0.21402,0.39674 0.6333,0.75253 1.01012,0.85719 0.14344,0.0398 1.02963,0.0691 2.09832,0.0693 l 1.84999,3.7e-4 V 198.86667 200 h 1.73172 1.73172 l 0.0183,-1.11667 0.0183,-1.11666 1.96666,-0.0333 c 2.13109,-0.0361 2.11193,-0.0329 2.59529,-0.43959 0.88817,-0.74735 0.67788,-2.31745 -0.38018,-2.83855 -0.30227,-0.14887 -0.39388,-0.15655 -2.24844,-0.18852 L 58.3667,194.23333 58.3334,192.6 c -0.031,-1.52157 -0.0434,-1.65215 -0.18041,-1.90828 -0.41981,-0.78481 -1.4352,-1.11599 -2.25341,-0.73497 z m 57.38148,-0.073 c -0.29705,0.0952 -0.78756,0.53864 -0.96713,0.87434 -0.13821,0.25839 -0.14849,0.3738 -0.16814,1.88825 l -0.0209,1.61304 -1.97907,0.0203 c -1.88136,0.0193 -1.99228,0.0274 -2.24577,0.16446 -0.31535,0.17048 -0.63713,0.49808 -0.80788,0.82251 -0.18084,0.3436 -0.17003,1.14419 0.0203,1.5 0.18896,0.35333 0.51939,0.6616 0.88763,0.82809 0.27908,0.12619 0.43366,0.13575 2.21667,0.13711 l 1.91666,0.001 V 198.86667 200 h 1.73334 1.73334 v -1.13333 -1.13334 h 1.85829 c 1.47446,0 1.91634,-0.0205 2.13935,-0.0992 0.69104,-0.24382 1.13801,-0.87407 1.13277,-1.59726 -0.005,-0.72313 -0.28462,-1.21287 -0.88012,-1.54282 l -0.35034,-0.19409 -1.95,-0.0204 -1.95,-0.0204 -6.7e-4,-1.51296 c 0,-0.83648 -0.0312,-1.624 -0.0693,-1.76128 -0.10553,-0.38 -0.45745,-0.79075 -0.85579,-0.99884 -0.28475,-0.14875 -0.43862,-0.18481 -0.76546,-0.17937 -0.22498,0.004 -0.5076,0.0384 -0.62805,0.077 z m 57.0445,0.1024 c -0.39834,0.20809 -0.75026,0.61884 -0.85579,0.99884 -0.0381,0.13728 -0.0691,0.92481 -0.0693,1.76133 l -4.1e-4,1.51301 -1.98333,0.0203 c -1.8891,0.0193 -1.99622,0.0272 -2.25455,0.16549 -1.27366,0.68175 -1.2673,2.49147 0.011,3.12571 0.23429,0.11625 0.45622,0.13244 2.22689,0.16245 l 1.96667,0.0333 0.0183,1.11666 0.0182,1.11667 h 1.73172 1.73172 v -1.13333 -1.13334 l 1.88333,-6.5e-4 c 1.83264,-6.3e-4 1.89231,-0.005 2.21667,-0.15621 1.34656,-0.62838 1.36575,-2.44351 0.0333,-3.15234 -0.20935,-0.11137 -0.43337,-0.12622 -2.17907,-0.14448 l -1.94574,-0.0203 -0.0209,-1.61299 c -0.0239,-1.83974 -0.0457,-1.92608 -0.61419,-2.42647 -0.5338,-0.46987 -1.28657,-0.56174 -1.91457,-0.23367 z M 0.19999967,194.99765 V 200 h 0.46666 0.46666993 v -1.13333 -1.13334 l 1.88333,-0.001 c 1.7494903,-0.001 1.9046603,-0.0111 2.1833403,-0.13711 1.34321,-0.60731 1.40743,-2.4529 0.1095,-3.14706 -0.26416,-0.14128 -0.36097,-0.14859 -2.2261703,-0.16807 l -1.95,-0.0204 v -1.45086 c 0,-1.66727 -0.059,-1.98524 -0.44800993,-2.41587 -0.13227,-0.14641 -0.29558,-0.29567 -0.36291,-0.33171 -0.11827,-0.0633 -0.12241,0.10384 -0.12241,4.93683 z"
       id="path6262" />
  </g>
</svg>
